<svg width="40" height="36" viewBox="0 0 40 36" fill="none" xmlns="http://www.w3.org/2000/svg">
<path d="M14.3864 9.48407C13.2564 9.48407 12.1265 9.16458 11.1472 8.44576C9.94198 7.64706 9.26402 6.52887 9.03803 5.25096C8.66139 2.77501 10.3186 0.458799 10.3939 0.29906C10.6199 -0.0204176 10.9966 -0.0204212 11.2979 0.139318C11.5992 0.299057 11.5992 0.778265 11.4485 1.09774C11.4485 1.09774 10.0926 3.09449 10.3939 5.01136C10.5446 5.88993 11.0719 6.68863 11.9005 7.32759C13.7084 8.6055 15.5916 8.12627 16.8722 7.56718C17.8515 7.08797 18.9814 7.08797 19.9607 7.56718C21.2413 8.20614 23.1245 8.68537 24.9324 7.32759C25.8363 6.68863 26.3636 5.88993 26.4389 5.01136C26.7402 3.09449 25.3843 1.09774 25.3843 1.09774C25.1583 0.778265 25.2337 0.378926 25.535 0.139318C25.8363 -0.100291 26.2129 -0.0204176 26.4389 0.29906C26.4389 0.37893 28.1715 2.77501 27.7948 5.25096C27.5689 6.52887 26.8909 7.64706 25.6857 8.44576C23.8778 9.72367 21.6932 9.80354 19.5087 8.76524C18.9061 8.44576 18.0775 8.44576 17.4748 8.76524C16.4956 9.24446 15.5163 9.48407 14.537 9.48407H14.3864Z" fill="white"/>
<path d="M10.6964 35.9211C10.6964 35.9211 10.3197 35.8413 10.1691 35.6017C7.9092 31.9277 8.13518 25.9375 10.7717 20.2667C13.2575 14.9155 10.1691 7.56749 10.1691 7.48762C10.0184 7.16814 10.1691 6.76879 10.4704 6.60905C10.7717 6.44931 11.1483 6.60906 11.299 6.92854C11.4496 7.24802 14.6888 14.9155 11.9016 20.8258C9.41577 26.0972 9.18979 31.6082 11.2237 34.8829C11.4497 35.2023 11.299 35.6017 11.073 35.7614C10.9977 35.7614 10.847 35.8413 10.6964 35.8413V35.9211Z" fill="white"/>
<path d="M25.9908 35.9203C25.9908 35.9203 25.7647 35.9203 25.6141 35.8404C25.3128 35.6008 25.2374 35.2014 25.4634 34.9618C26.97 32.5658 27.2713 28.8119 26.2167 24.8184C26.1414 24.4989 26.292 24.0996 26.6687 24.0197C26.97 23.9399 27.3467 24.0996 27.422 24.4989C28.5519 28.8917 28.2506 32.9651 26.5181 35.6807C26.3674 35.8404 26.2167 36.0002 25.9908 36.0002V35.9203Z" fill="white"/>
<path d="M24.3335 16.433C24.3335 16.433 23.7309 16.1135 23.7309 15.794C23.6556 11.2415 25.3881 7.16815 25.4635 6.92854C25.6141 6.60906 25.9908 6.44931 26.2921 6.60905C26.5934 6.76879 26.7441 7.16814 26.5934 7.48762C26.5934 7.48762 24.9362 11.561 25.0115 15.7142C25.0115 16.1135 24.7855 16.3531 24.4089 16.3531L24.3335 16.433Z" fill="white"/>
<path d="M20.0385 35.9219C20.0385 35.9219 19.4358 35.6024 19.4358 35.2829V31.2096C19.4358 30.5706 18.9085 30.0116 18.3059 30.0116C17.7033 30.0116 17.176 30.5706 17.176 31.2096V35.2829C17.176 35.2829 16.8746 35.9219 16.5733 35.9219C16.272 35.9219 15.9707 35.6024 15.9707 35.2829V31.2096C15.9707 29.8518 17.0253 28.7336 18.3059 28.7336C19.5865 28.7336 20.6411 29.8518 20.6411 31.2096V35.2829C20.6411 35.2829 20.3398 35.9219 20.0385 35.9219Z" fill="white"/>
<path d="M16.6469 31.8465C16.6469 31.8465 16.3456 31.8465 16.2703 31.6868C16.2703 31.6868 13.1065 29.1309 9.26474 29.1309C8.88809 29.1309 8.66211 28.8114 8.66211 28.492C8.66211 28.0926 8.96342 27.853 9.26474 27.853C13.5585 27.853 16.8729 30.5686 17.0236 30.6484C17.3249 30.8881 17.3249 31.2874 17.0989 31.6069C16.9482 31.7666 16.7976 31.8465 16.5716 31.8465H16.6469Z" fill="white"/>
<path d="M20.0368 31.8465C20.0368 31.8465 19.6602 31.7666 19.5095 31.6069C19.2835 31.2874 19.3588 30.8881 19.5848 30.6484C19.7355 30.5686 23.0499 27.853 27.3437 27.853C27.7203 27.853 27.9463 28.1725 27.9463 28.492C27.9463 28.8913 27.645 29.1309 27.3437 29.1309C23.5019 29.1309 20.4134 31.6069 20.3381 31.6868C20.1875 31.7666 20.1121 31.8465 19.9615 31.8465H20.0368Z" fill="white"/>
<path d="M20.6381 23.0628H10.544C10.544 23.0628 9.94141 22.7434 9.94141 22.4239C9.94141 22.1044 10.2427 21.7849 10.544 21.7849H20.6381C20.6381 21.7849 21.2407 22.1044 21.2407 22.4239C21.2407 22.7434 20.9394 23.0628 20.6381 23.0628Z" fill="white"/>
<path d="M27.3418 22.5817C25.8353 22.5817 24.5547 21.224 24.5547 19.6266C24.5547 18.0292 25.8353 16.6714 27.3418 16.6714C28.8484 16.6714 30.129 18.0292 30.129 19.6266C30.129 21.224 28.8484 22.5817 27.3418 22.5817ZM27.3418 17.9493C26.5132 17.9493 25.8353 18.6681 25.8353 19.5467C25.8353 20.4253 26.5132 21.1441 27.3418 21.1441C28.1705 21.1441 28.8484 20.4253 28.8484 19.5467C28.8484 18.6681 28.1705 17.9493 27.3418 17.9493Z" fill="white"/>
<path d="M27.3444 25.3757C26.8171 25.3757 26.2898 25.216 25.9132 24.8166C25.6119 24.577 25.3106 24.4173 25.0846 24.4173C24.4819 24.4173 23.9546 24.0978 23.578 23.6984C23.2013 23.2991 22.9 22.74 22.9 22.101C22.9 21.8614 22.7494 21.5419 22.5234 21.2225C22.2221 20.7433 21.9961 20.264 21.9961 19.705C21.9961 19.1459 22.1467 18.5868 22.5234 18.1875C22.7494 17.868 22.9 17.5485 22.9 17.3089C22.9 16.6699 23.2013 16.1108 23.578 15.7115C23.9546 15.3121 24.4819 14.9927 25.0846 14.9927C25.3106 14.9927 25.6119 14.8329 25.9132 14.5933C26.7418 13.8745 28.0224 13.8745 28.851 14.5933C29.1523 14.8329 29.4536 14.9927 29.6796 14.9927C30.2069 14.9927 30.8095 15.3121 31.1862 15.7115C31.5628 16.1108 31.8642 16.6699 31.8642 17.3089C31.8642 17.5485 32.0148 17.868 32.2408 18.1875C32.5421 18.6667 32.6928 19.1459 32.6928 19.705C32.6928 20.264 32.5421 20.8231 32.2408 21.2225C32.0148 21.5419 31.8642 21.8614 31.8642 22.101C31.8642 22.74 31.5628 23.2991 31.1862 23.6984C30.8095 24.0978 30.2822 24.4173 29.6796 24.4173C29.4536 24.4173 29.1523 24.577 28.851 24.8166C28.399 25.1361 27.9471 25.3757 27.4198 25.3757H27.3444ZM27.3444 15.2323C27.3444 15.2323 26.8171 15.3121 26.5911 15.4719C26.0638 15.8712 25.6119 16.1108 25.0846 16.1108C24.7833 16.1108 24.5573 16.2706 24.3313 16.5102C24.1053 16.7498 24.03 16.9894 23.9547 17.3089C23.9547 17.868 23.7287 18.3472 23.352 18.9063C23.2014 19.1459 23.126 19.3855 23.126 19.705C23.126 20.0244 23.2014 20.264 23.352 20.5036C23.7287 21.0627 23.9547 21.542 23.9547 22.101C23.9547 22.4205 24.1053 22.6601 24.3313 22.8998C24.5573 23.1394 24.7833 23.2192 25.0846 23.2991C25.6119 23.2991 26.0638 23.5387 26.5911 23.938C27.0431 24.2575 27.5704 24.2575 28.0224 23.938C28.5497 23.5387 29.0017 23.2991 29.529 23.2991C29.8303 23.2991 30.0563 23.1394 30.2823 22.8998C30.5082 22.6601 30.5836 22.4205 30.6589 22.101C30.6589 21.542 30.8849 21.0627 31.2615 20.5036C31.4122 20.264 31.4875 20.0244 31.4875 19.705C31.4875 19.3855 31.4122 19.1459 31.2615 18.9861C30.8849 18.427 30.6589 17.9478 30.6589 17.3887C30.6589 17.0693 30.5082 16.8297 30.2823 16.5901C30.0563 16.3504 29.8303 16.2706 29.529 16.1907C29.0017 16.1907 28.5497 15.9511 28.0224 15.5517C27.7964 15.392 27.5704 15.3121 27.2691 15.3121L27.3444 15.2323Z" fill="white"/>
<path d="M18.3058 17.9471C18.3058 17.9471 17.7031 17.6276 17.7031 17.3082V16.19C17.7031 16.19 18.0045 15.551 18.3058 15.551C18.6071 15.551 18.9084 15.8705 18.9084 16.19V17.3082C18.9084 17.3082 18.6071 17.9471 18.3058 17.9471Z" fill="white"/>
<path d="M32.7686 6.60555C32.7686 6.60555 32.166 6.28606 32.166 5.96658V4.84841C32.166 4.84841 32.4673 4.20947 32.7686 4.20947C33.0699 4.20947 33.3713 4.52893 33.3713 4.84841V5.96658C33.3713 5.96658 33.0699 6.60555 32.7686 6.60555Z" fill="white"/>
<path d="M35.5556 8.36385H34.5011C34.5011 8.36385 33.8984 8.04439 33.8984 7.72491C33.8984 7.40543 34.1997 7.08594 34.5011 7.08594H35.5556C35.5556 7.08594 36.1583 7.40543 36.1583 7.72491C36.1583 8.04439 35.857 8.36385 35.5556 8.36385Z" fill="white"/>
<path d="M31.0361 8.36385H29.9815C29.9815 8.36385 29.3789 8.04439 29.3789 7.72491C29.3789 7.40543 29.6802 7.08594 29.9815 7.08594H31.0361C31.0361 7.08594 31.6388 7.40543 31.6388 7.72491C31.6388 8.04439 31.3375 8.36385 31.0361 8.36385Z" fill="white"/>
<path d="M32.7686 11.2398C32.7686 11.2398 32.166 10.9204 32.166 10.6009V9.48272C32.166 9.48272 32.4673 8.84375 32.7686 8.84375C33.0699 8.84375 33.3713 9.16324 33.3713 9.48272V10.6009C33.3713 10.6009 33.0699 11.2398 32.7686 11.2398Z" fill="white"/>
<path d="M36.9874 14.9161C36.9874 14.9161 36.3848 14.5966 36.3848 14.2771V13.2388C36.3848 13.2388 36.6861 12.5999 36.9874 12.5999C37.2887 12.5999 37.59 12.9193 37.59 13.2388V14.2771C37.59 14.2771 37.2887 14.9161 36.9874 14.9161Z" fill="white"/>
<path d="M39.3983 16.4322H38.419C38.419 16.4322 37.8164 16.1127 37.8164 15.7932C37.8164 15.4738 38.1177 15.1543 38.419 15.1543H39.3983C39.3983 15.1543 40.0009 15.4738 40.0009 15.7932C40.0009 16.1127 39.6996 16.4322 39.3983 16.4322Z" fill="white"/>
<path d="M35.4061 16.4322H34.4269C34.4269 16.4322 33.8242 16.1127 33.8242 15.7932C33.8242 15.4738 34.1255 15.1543 34.4269 15.1543H35.4061C35.4061 15.1543 36.0088 15.4738 36.0088 15.7932C36.0088 16.1127 35.7075 16.4322 35.4061 16.4322Z" fill="white"/>
<path d="M36.9874 18.91C36.9874 18.91 36.3848 18.5905 36.3848 18.271V17.2327C36.3848 17.2327 36.6861 16.5938 36.9874 16.5938C37.2887 16.5938 37.59 16.9132 37.59 17.2327V18.271C37.59 18.271 37.2887 18.91 36.9874 18.91Z" fill="white"/>
<path d="M3.39169 25.6973C3.39169 25.6973 2.78906 25.3779 2.78906 25.0584V23.9402C2.78906 23.9402 3.09038 23.3013 3.39169 23.3013C3.69301 23.3013 3.99432 23.6207 3.99432 23.9402V25.0584C3.99432 25.0584 3.69301 25.6973 3.39169 25.6973Z" fill="white"/>
<path d="M6.17677 27.3748H5.12216C5.12216 27.3748 4.51953 27.0554 4.51953 26.7359C4.51953 26.4164 4.82085 26.0969 5.12216 26.0969H6.17677C6.17677 26.0969 6.7794 26.4164 6.7794 26.7359C6.7794 27.0554 6.47808 27.3748 6.17677 27.3748Z" fill="white"/>
<path d="M1.65724 27.3748H0.602628C0.602628 27.3748 0 27.0554 0 26.7359C0 26.4164 0.301314 26.0969 0.602628 26.0969H1.65724C1.65724 26.0969 2.25987 26.4164 2.25987 26.7359C2.25987 27.0554 1.95855 27.3748 1.65724 27.3748Z" fill="white"/>
<path d="M3.39169 30.2491C3.39169 30.2491 2.78906 29.9296 2.78906 29.6102V28.492C2.78906 28.492 3.09038 27.853 3.39169 27.853C3.69301 27.853 3.99432 28.1725 3.99432 28.492V29.6102C3.99432 29.6102 3.69301 30.2491 3.39169 30.2491Z" fill="white"/>
<path d="M6.32528 12.2794C6.32528 12.2794 5.72266 11.9599 5.72266 11.6404V10.6021C5.72266 10.6021 6.02397 9.96313 6.32528 9.96313C6.6266 9.96313 6.92791 10.2826 6.92791 10.6021V11.6404C6.92791 11.6404 6.6266 12.2794 6.32528 12.2794Z" fill="white"/>
<path d="M8.96471 13.8778H7.98544C7.98544 13.8778 7.38281 13.5583 7.38281 13.2388C7.38281 12.9193 7.68413 12.5999 7.98544 12.5999H8.96471C8.96471 12.5999 9.56733 12.9193 9.56733 13.2388C9.56733 13.5583 9.26602 13.8778 8.96471 13.8778Z" fill="white"/>
<path d="M4.67174 13.8778H3.69247C3.69247 13.8778 3.08984 13.5583 3.08984 13.2388C3.08984 12.9193 3.39116 12.5999 3.69247 12.5999H4.67174C4.67174 12.5999 5.27437 12.9193 5.27437 13.2388C5.27437 13.5583 4.97305 13.8778 4.67174 13.8778Z" fill="white"/>
<path d="M6.32528 16.5933C6.32528 16.5933 5.72266 16.2738 5.72266 15.9544V14.9161C5.72266 14.9161 6.02397 14.2771 6.32528 14.2771C6.6266 14.2771 6.92791 14.5966 6.92791 14.9161V15.9544C6.92791 15.9544 6.6266 16.5933 6.32528 16.5933Z" fill="white"/>
<path d="M34.5011 27.3736C34.5011 27.3736 33.8984 27.0542 33.8984 26.7347V25.6165C33.8984 25.6165 34.1997 24.9775 34.5011 24.9775C34.8024 24.9775 35.1037 25.297 35.1037 25.6165V26.7347C35.1037 26.7347 34.8024 27.3736 34.5011 27.3736Z" fill="white"/>
<path d="M37.2881 29.1309H36.2335C36.2335 29.1309 35.6309 28.8114 35.6309 28.492C35.6309 28.1725 35.9322 27.853 36.2335 27.853H37.2881C37.2881 27.853 37.8907 28.1725 37.8907 28.492C37.8907 28.8114 37.5894 29.1309 37.2881 29.1309Z" fill="white"/>
<path d="M32.6943 29.1309H31.6398C31.6398 29.1309 31.0371 28.8114 31.0371 28.492C31.0371 28.1725 31.3384 27.853 31.6398 27.853H32.6943C32.6943 27.853 33.297 28.1725 33.297 28.492C33.297 28.8114 32.9957 29.1309 32.6943 29.1309Z" fill="white"/>
<path d="M34.5011 32.0069C34.5011 32.0069 33.8984 31.6874 33.8984 31.3679V30.2498C33.8984 30.2498 34.1997 29.6108 34.5011 29.6108C34.8024 29.6108 35.1037 29.9303 35.1037 30.2498V31.3679C35.1037 31.3679 34.8024 32.0069 34.5011 32.0069Z" fill="white"/>
</svg>
