<svg width="32" height="40" viewBox="0 0 32 40" fill="none" xmlns="http://www.w3.org/2000/svg">
<path d="M27.9786 37.0866H0.723586C0.723586 37.0866 0 36.7716 0 36.3779V0.708647C0 0.708647 0.321594 0 0.723586 0H27.9786C27.9786 0 28.7022 0.314947 28.7022 0.708647V36.3779C28.7022 36.3779 28.3806 37.0866 27.9786 37.0866ZM1.44717 35.748H27.255V1.49605H1.44717V35.748Z" fill="white"/>
<path d="M31.2755 39.9997H4.02046C4.02046 39.9997 3.29688 39.6847 3.29688 39.291V36.3776C3.29688 36.3776 3.61847 35.669 4.02046 35.669H27.2556V3.62175C27.2556 3.62175 27.5771 2.91309 27.9791 2.91309H31.2755C31.2755 2.91309 31.9991 3.22805 31.9991 3.62175V39.291C31.9991 39.291 31.6775 39.9997 31.2755 39.9997ZM4.74405 38.6611H30.5519V4.40915H28.6223V36.4564C28.6223 36.4564 28.3007 37.165 27.8988 37.165H4.66366V38.7398L4.74405 38.6611Z" fill="white"/>
<path d="M9.08623 11.8906H6.83505C6.83505 11.8906 6.11147 11.5757 6.11147 11.182V9.44971H4.34273C4.34273 9.44971 3.61914 9.13475 3.61914 8.74105V6.53633C3.61914 6.53633 3.94073 5.82767 4.34273 5.82767H6.11147V4.09538C6.11147 4.09538 6.43306 3.38672 6.83505 3.38672H9.08623C9.08623 3.38672 9.80981 3.70168 9.80981 4.09538V5.82767H11.5786C11.5786 5.82767 12.3021 6.14263 12.3021 6.53633V8.74105C12.3021 8.74105 11.9805 9.44971 11.5786 9.44971H9.80981V11.182C9.80981 11.182 9.48822 11.8906 9.08623 11.8906ZM7.55864 10.5521H8.36264V8.81979C8.36264 8.81979 8.68423 8.11113 9.08623 8.11113H10.855V7.32372H9.08623C9.08623 7.32372 8.36264 7.00876 8.36264 6.61506V4.88278H7.55864V6.61506C7.55864 6.61506 7.23704 7.32372 6.83505 7.32372H5.06631V8.11113H6.83505C6.83505 8.11113 7.55864 8.42609 7.55864 8.81979V10.5521Z" fill="white"/>
<path d="M24.8444 4.88119H16.081C16.081 4.88119 15.3574 4.56623 15.3574 4.17253C15.3574 3.77883 15.679 3.46387 16.081 3.46387H24.8444C24.8444 3.46387 25.568 3.77883 25.568 4.17253C25.568 4.56623 25.2464 4.88119 24.8444 4.88119Z" fill="white"/>
<path d="M24.8444 7.24641H16.081C16.081 7.24641 15.3574 6.93146 15.3574 6.53776C15.3574 6.14406 15.679 5.8291 16.081 5.8291H24.8444C24.8444 5.8291 25.568 6.14406 25.568 6.53776C25.568 6.93146 25.2464 7.24641 24.8444 7.24641Z" fill="white"/>
<path d="M24.8444 9.52572H16.081C16.081 9.52572 15.3574 9.21076 15.3574 8.81706C15.3574 8.42336 15.679 8.1084 16.081 8.1084H24.8444C24.8444 8.1084 25.568 8.42336 25.568 8.81706C25.568 9.21076 25.2464 9.52572 24.8444 9.52572Z" fill="white"/>
<path d="M24.8444 11.89H16.081C16.081 11.89 15.3574 11.575 15.3574 11.1813C15.3574 10.7876 15.679 10.4727 16.081 10.4727H24.8444C24.8444 10.4727 25.568 10.7876 25.568 11.1813C25.568 11.575 25.2464 11.89 24.8444 11.89Z" fill="white"/>
<path d="M24.8444 14.1732H16.081C16.081 14.1732 15.3574 13.8582 15.3574 13.4645C15.3574 13.0708 15.679 12.7559 16.081 12.7559H24.8444C24.8444 12.7559 25.568 13.0708 25.568 13.4645C25.568 13.8582 25.2464 14.1732 24.8444 14.1732Z" fill="white"/>
<path d="M24.8433 16.5345H4.10054C4.10054 16.5345 3.37695 16.2196 3.37695 15.8258C3.37695 15.4321 3.69855 15.1172 4.10054 15.1172H24.8433C24.8433 15.1172 25.5669 15.4321 25.5669 15.8258C25.5669 16.2196 25.2453 16.5345 24.8433 16.5345Z" fill="white"/>
<path d="M24.8433 18.8978H4.10054C4.10054 18.8978 3.37695 18.5828 3.37695 18.1891C3.37695 17.7954 3.69855 17.4805 4.10054 17.4805H24.8433C24.8433 17.4805 25.5669 17.7954 25.5669 18.1891C25.5669 18.5828 25.2453 18.8978 24.8433 18.8978Z" fill="white"/>
<path d="M6.91351 32.5972C5.70753 32.5972 4.82314 32.2035 4.26035 31.4948C2.97398 29.7625 4.34077 26.6129 4.66237 25.9043C4.66237 25.5106 4.98395 25.0381 5.46634 24.8806C6.35072 24.4869 7.39589 25.2743 8.03908 25.8255C8.92346 26.6129 9.00385 27.3216 8.84305 27.794C8.52146 29.1326 6.35073 29.605 5.94874 29.7625C5.54675 29.8413 5.22514 29.605 5.14474 29.2113C5.06434 28.8176 5.30553 28.5027 5.70752 28.4239C6.51151 28.2665 7.47628 27.794 7.55668 27.4791C7.55668 27.4003 7.47629 27.1641 7.15469 26.9279C6.59191 26.4554 6.2703 26.298 6.10951 26.2192C6.10951 26.298 6.10951 26.3767 6.10951 26.4554C5.70752 27.2428 4.74275 29.6838 5.46634 30.7074C5.94873 31.3373 7.15469 31.2586 8.11946 31.1011C9.96862 30.7861 10.2902 30.3924 10.2902 30.3137C10.2902 30.235 10.2902 29.9987 10.1294 29.7625C9.96862 29.3688 9.72743 28.8176 10.1294 28.2665C10.5314 27.7153 11.255 27.4791 12.9434 27.4791C14.5513 27.4791 15.4357 27.7153 15.8377 28.4239C16.2397 29.0539 15.9985 29.6838 15.7573 30.1562C15.9181 30.1562 15.9985 30.1562 16.1593 30.0775C18.4104 29.4476 18.5713 28.8964 18.5713 28.8964C18.5713 28.8964 18.5712 28.8964 18.4908 28.8964C18.1693 28.6602 18.0889 28.2665 18.2497 27.9515C18.4909 27.6365 18.8928 27.5578 19.2144 27.7153C19.6164 27.9515 20.0184 28.5027 19.938 29.1326C19.7772 30.0775 18.732 30.7862 16.4809 31.4161C15.2749 31.731 14.5513 31.8885 14.1493 31.4161C13.7473 30.9436 14.0689 30.3924 14.3101 29.92C14.3905 29.7625 14.6317 29.3688 14.5513 29.2113C14.5513 29.2113 14.3101 28.9751 12.9434 28.9751C12.9434 28.9751 12.9434 28.9751 12.863 28.9751C11.8982 28.9751 11.4158 29.0539 11.255 29.1326V29.2901C11.4158 29.6838 11.7374 30.3137 11.255 31.0224C10.853 31.731 9.88823 32.2035 8.11946 32.5184C7.63707 32.5972 7.1547 32.6759 6.75271 32.6759L6.91351 32.5972Z" fill="white"/>
<path d="M24.8425 34.0951H11.1748C11.1748 34.0951 10.4512 33.7801 10.4512 33.3864C10.4512 32.9927 10.7728 32.6777 11.1748 32.6777H24.8425C24.8425 32.6777 25.5661 32.9927 25.5661 33.3864C25.5661 33.7801 25.2445 34.0951 24.8425 34.0951Z" fill="white"/>
<path d="M24.8428 31.1029H21.8681C21.8681 31.1029 21.1445 30.7879 21.1445 30.3942C21.1445 30.0005 21.4661 29.6855 21.8681 29.6855H24.8428C24.8428 29.6855 25.5664 30.0005 25.5664 30.3942C25.5664 30.7879 25.2448 31.1029 24.8428 31.1029Z" fill="white"/>
</svg>
