<svg width="28" height="40" viewBox="0 0 28 40" fill="none" xmlns="http://www.w3.org/2000/svg">
<path d="M9.99619 8.01484C7.61658 8.01484 5.71289 6.23377 5.71289 4.00743C5.71289 1.78108 7.61658 0 9.99619 0C12.3758 0 14.2795 1.78108 14.2795 4.00743C14.2795 6.23377 12.3758 8.01484 9.99619 8.01484ZM9.99619 1.2616C8.40978 1.2616 7.06138 2.5232 7.06138 4.00743C7.06138 5.49166 8.40978 6.75324 9.99619 6.75324C11.5826 6.75324 12.9311 5.49166 12.9311 4.00743C12.9311 2.5232 11.5826 1.2616 9.99619 1.2616Z" fill="white"/>
<path d="M7.45728 21.8909C6.26748 21.8909 5.23633 20.9261 5.23633 19.8129V14.9892C5.23633 14.3213 5.55363 13.6534 6.18819 13.2823L8.80577 10.8333C8.80577 10.8333 8.80573 10.8333 8.88505 10.7591C9.91621 10.1654 11.2646 10.3881 11.9785 11.3528C12.2958 11.7981 12.3751 12.3918 12.2958 12.9113C12.2165 13.4307 11.8992 13.876 11.4233 14.1729L9.67824 15.9539V19.8129C9.67824 20.9261 8.64708 21.8909 7.45728 21.8909ZM9.67824 11.7981L7.06072 14.1729C7.06072 14.1729 7.0607 14.1729 6.98138 14.2471C6.74342 14.3955 6.58476 14.6181 6.58476 14.915V19.7387C6.58476 20.184 6.98136 20.555 7.45728 20.555C7.9332 20.555 8.32981 20.184 8.32981 19.7387V15.6571C8.32981 15.6571 8.32984 15.3602 8.48848 15.2118L10.4715 13.1339C10.4715 13.1339 10.5508 13.0597 10.6301 13.0597C10.7887 12.9113 10.9474 12.7628 11.0267 12.5402C11.0267 12.3176 11.0267 12.0949 10.9474 11.9465C10.7094 11.5755 10.2335 11.5012 9.83691 11.6497L9.67824 11.7981Z" fill="white"/>
<path d="M3.25126 35.3248H3.09264C2.29944 35.3248 1.58556 34.8796 1.10964 34.2859C0.395757 33.3211 0.475084 31.9853 1.42693 31.169L6.66202 25.9742L7.53455 22.2636C7.53455 22.2636 7.69321 21.8926 7.93118 21.8184C8.16914 21.7441 8.32773 21.7441 8.56569 21.8184C9.27957 22.1894 10.0728 22.2636 10.9453 22.1152C11.1833 22.1152 11.5005 22.1152 11.6592 22.3378L12.611 23.5994C12.611 23.5994 12.7697 23.9705 12.6904 24.1189L11.8972 27.1616C11.8972 27.7553 11.5799 28.2748 11.1833 28.72L5.23426 34.5827C4.75834 35.1022 4.04447 35.3248 3.33059 35.3248H3.25126ZM8.64503 23.2284L7.93118 26.4195C7.93118 26.4195 7.85182 26.6421 7.7725 26.7163L2.37873 32.0595C1.98213 32.5048 1.90283 33.0985 2.22012 33.5438C2.45808 33.8406 2.77532 34.0632 3.17192 34.0632C3.56852 34.0632 3.88584 33.989 4.20312 33.6922L10.1521 27.8295C10.1521 27.8295 10.4694 27.31 10.4694 27.0132C10.4694 27.0132 10.4694 26.9389 10.4694 26.8647L11.1833 24.0447L10.628 23.3026C9.91415 23.3768 9.27959 23.3026 8.64503 23.1542V23.2284Z" fill="white"/>
<path d="M17.0542 37.1068C17.0542 37.1068 16.8163 37.1068 16.7369 37.1068C15.4678 36.9584 14.516 35.9936 14.4366 34.8062L13.8814 27.6819L10.6292 23.4519C8.88421 23.6745 7.29782 23.0066 6.18734 21.745C6.0287 21.5224 6.0287 21.2997 6.18734 21.0771C6.26666 20.8545 6.50463 20.7061 6.82192 20.7061H7.29782C7.29782 20.7061 7.29783 20.7061 7.37715 20.7061C7.45647 20.7061 7.53578 20.7061 7.6151 20.7061C7.6151 20.7061 7.61506 20.7061 7.69438 20.7061H14.9919C14.9919 20.7061 15.4678 20.7803 15.5471 21.0029L18.3233 24.8619C18.7992 25.3072 19.0372 25.8267 19.0372 26.4203L19.6717 34.5094C19.6717 35.2515 19.4338 35.9936 18.8786 36.5131C18.4026 36.9584 17.768 37.181 17.0542 37.181V37.1068ZM10.9465 21.9677C10.9465 21.9677 11.3431 22.0419 11.5018 22.2645L15.0712 26.9398C15.0712 26.9398 15.1505 27.1624 15.2298 27.2367L15.7851 34.5836C15.7851 35.1773 16.261 35.6226 16.8955 35.6968C17.2921 35.6968 17.6887 35.6968 17.9267 35.3999C18.1646 35.1773 18.3233 34.8062 18.3233 34.4352L17.6887 26.3461C17.6887 26.3461 17.5301 25.7524 17.2922 25.604C17.2922 25.604 17.2922 25.604 17.2128 25.5298L14.5953 21.8934H8.80492C9.43948 22.1161 10.074 22.1903 10.7879 22.0419C10.7879 22.0419 10.8672 22.0419 10.9465 22.0419V21.9677Z" fill="white"/>
<path d="M13.8029 20.2596H8.96438C8.96438 20.2596 8.25047 19.9627 8.25047 19.5917V15.7327C8.25047 15.7327 8.25051 15.4358 8.40915 15.2874L10.3921 13.2095C10.3921 13.2095 10.4714 13.1353 10.5508 13.1353C10.7094 12.9868 10.8681 12.8384 10.9474 12.6158C10.9474 12.3932 10.9474 12.1705 10.8681 12.0221C10.7094 11.8737 10.5508 11.7252 10.3128 11.651C10.0749 11.651 9.91621 11.651 9.75757 11.7253L7.13999 14.1C7.13999 14.1 7.14004 14.1 7.06072 14.1742C6.82276 14.3227 6.66409 14.5453 6.66409 14.8421C6.66409 15.2132 6.34684 15.51 5.95024 15.51C5.55364 15.51 5.23633 15.2132 5.23633 14.8421V12.9126C5.23633 10.5379 7.06068 8.60838 9.44029 8.38574C9.59893 8.38574 9.75761 8.38574 9.91625 8.38574C11.1061 8.38574 12.2165 8.83101 13.0097 9.57312C13.8823 10.3895 14.4375 11.5768 14.4375 12.7642V19.5175C14.4375 19.5175 14.1202 20.1854 13.7236 20.1854L13.8029 20.2596ZM9.67824 18.998H13.1683V12.9126C13.1683 12.0221 12.7718 11.2058 12.1372 10.6121C11.5026 10.0926 10.7888 9.79575 9.91625 9.79575C9.83693 9.79575 9.67828 9.79575 9.59896 9.79575C8.01256 9.94417 6.7434 11.28 6.58476 12.9126L8.72643 10.9089C8.72643 10.9089 8.72645 10.9089 8.80577 10.8347C9.28169 10.5379 9.91625 10.4637 10.4715 10.5379C11.0267 10.6863 11.582 10.9831 11.8993 11.4284C12.2165 11.8737 12.2958 12.4674 12.2165 12.9868C12.1372 13.5063 11.8199 13.9516 11.344 14.2484L9.59896 16.0295V18.998H9.67824Z" fill="white"/>
<path d="M24.9832 26.8656H22.9209C22.9209 26.8656 22.207 26.5687 22.207 26.1977V21.2255C22.207 21.2255 22.5243 20.5576 22.9209 20.5576H24.9832C24.9832 20.5576 25.6971 20.8545 25.6971 21.2255V26.1977C25.6971 26.1977 25.3798 26.8656 24.9832 26.8656ZM23.6348 25.5298H24.3487V21.8934H23.6348V25.5298Z" fill="white"/>
<path d="M25.5437 31.0209H22.4502C22.4502 31.0209 21.7363 30.7241 21.7363 30.353V26.123C21.7363 26.123 22.0536 25.4551 22.4502 25.4551H25.5437C25.5437 25.4551 26.2576 25.7519 26.2576 26.123V30.353C26.2576 30.353 25.9403 31.0209 25.5437 31.0209ZM23.0848 29.7593H24.8298V26.8651H23.0848V29.7593Z" fill="white"/>
<path d="M26.0163 40H21.8916C21.8916 40 21.1777 39.7031 21.1777 39.3321V30.3525C21.1777 30.3525 21.495 29.6846 21.8916 29.6846H26.0163C26.0163 29.6846 26.7301 29.9814 26.7301 30.3525V39.3321C26.7301 39.3321 26.4129 40 26.0163 40ZM22.6055 38.7384H25.3817V31.0204H22.6055V38.7384Z" fill="white"/>
<path d="M27.2861 39.9999H0.713852C0.713852 39.9999 0 39.703 0 39.332C0 38.9609 0.317252 38.6641 0.713852 38.6641H27.2861C27.2861 38.6641 28 38.9609 28 39.332C28 39.703 27.6827 39.9999 27.2861 39.9999Z" fill="white"/>
<path d="M7.2181 21.8913H0.713852C0.713852 21.8913 0 21.5945 0 21.2234C0 20.8523 0.317252 20.5555 0.713852 20.5555H5.39377C5.39377 20.5555 5.31444 20.3329 5.31444 20.2586H0.793189C0.793189 20.2586 0.0792766 19.9618 0.0792766 19.5908C0.0792766 19.2197 0.396589 18.9229 0.793189 18.9229H5.94901C5.94901 18.9229 6.66286 19.2197 6.66286 19.5908V19.8134C6.66286 20.1844 6.98017 20.5555 7.37678 20.6297C7.77338 20.6297 8.01133 21.0008 7.93201 21.2976C7.93201 21.6687 7.6147 21.8913 7.2181 21.8913Z" fill="white"/>
<path d="M26.4119 21.8913H7.69237C7.69237 21.8913 7.05784 21.5945 6.97852 21.2976C6.97852 20.9266 7.21647 20.6297 7.53375 20.6297C7.93035 20.6297 8.24761 20.2587 8.24761 19.8134V19.5908C8.24761 19.5908 8.56492 18.9229 8.96152 18.9229H26.4119C27.2844 18.9229 27.9984 19.5907 27.9984 20.4071C27.9984 21.2234 27.2844 21.8913 26.4119 21.8913ZM9.51676 20.6297H26.4119C26.4119 20.6297 26.5706 20.6297 26.5706 20.4813C26.5706 20.3329 26.5706 20.3329 26.4119 20.3329H9.59609C9.59609 20.3329 9.59608 20.5555 9.51676 20.6297Z" fill="white"/>
<path d="M18.0068 18.3321C18.0068 18.3321 17.293 18.0353 17.293 17.6642V15.4378C17.293 15.4378 17.5309 14.9184 17.7689 14.8441C18.0862 14.7699 18.4034 14.8442 18.5621 15.141L19.1173 16.0315C19.1173 16.0315 19.1966 16.6994 18.8793 16.9221C18.8793 16.9221 18.7207 16.9221 18.6414 16.9963V17.7384C18.6414 17.7384 18.3241 18.4063 17.9275 18.4063L18.0068 18.3321Z" fill="white"/>
<path d="M18.0055 18.3317C18.0055 18.3317 17.2916 18.0349 17.2916 17.6638V16.9217C17.2916 16.9217 17.1329 16.9217 17.0536 16.8475C16.7363 16.6991 16.657 16.2538 16.8157 15.957L17.3709 15.0664C17.3709 15.0664 17.8468 14.6954 18.1641 14.7696C18.4814 14.8438 18.64 15.0664 18.64 15.3633V17.5896C18.64 17.5896 18.3227 18.2575 17.9261 18.2575L18.0055 18.3317Z" fill="white"/>
<path d="M21.3369 13.5811C21.3369 13.5811 20.623 13.2843 20.623 12.9132V10.6869C20.623 10.6869 20.861 10.1674 21.0989 10.0932C21.4162 10.019 21.7335 10.0932 21.8921 10.39L22.4474 11.2806C22.4474 11.2806 22.5267 11.9485 22.2094 12.1711C22.2094 12.1711 22.0508 12.1711 21.9715 12.2453V12.9874C21.9715 12.9874 21.6542 13.6553 21.2576 13.6553L21.3369 13.5811Z" fill="white"/>
<path d="M21.3355 13.5807C21.3355 13.5807 20.6217 13.2839 20.6217 12.9128V12.1707C20.6217 12.1707 20.463 12.1707 20.3837 12.0965C20.0664 11.9481 19.9871 11.5028 20.1457 11.206L20.701 10.3155C20.701 10.3155 21.1769 9.94439 21.4942 10.0186C21.8115 10.0928 21.9701 10.3154 21.9701 10.6123V12.8386C21.9701 12.8386 21.6529 13.5065 21.2563 13.5065L21.3355 13.5807Z" fill="white"/>
<path d="M2.37987 13.3555C2.37987 13.3555 1.66602 13.0587 1.66602 12.6876V10.4613C1.66602 10.4613 1.90396 9.9418 2.14192 9.86759C2.4592 9.79337 2.77647 9.86759 2.93511 10.1644L3.49035 11.055C3.49035 11.055 3.56967 11.7229 3.25239 11.9455C3.25239 11.9455 3.09376 11.9455 3.01444 12.0197V12.7618C3.01444 12.7618 2.69713 13.4297 2.30053 13.4297L2.37987 13.3555Z" fill="white"/>
<path d="M2.38045 13.3591C2.38045 13.3591 1.6666 13.0622 1.6666 12.6912V11.9491C1.6666 11.9491 1.50797 11.9491 1.42865 11.8748C1.11137 11.7264 1.03199 11.2812 1.19064 10.9843L1.74587 10.0938C1.74587 10.0938 2.22184 9.72271 2.53912 9.79692C2.8564 9.87113 3.01503 10.0938 3.01503 10.3906V12.617C3.01503 12.617 2.69771 13.2849 2.30111 13.2849L2.38045 13.3591Z" fill="white"/>
</svg>
