<svg width="32" height="40" viewBox="0 0 32 40" fill="none" xmlns="http://www.w3.org/2000/svg">
<path d="M31.1467 40H0.682667C0.682667 40 0 39.7075 0 39.415V5.26509C0 3.51006 1.62133 2.12066 3.66933 2.12066H7.08267V1.90129C7.08267 0.877529 8.10667 0 9.30133 0H22.6987C23.8933 0 24.9173 0.877529 24.9173 1.90129V2.12066H28.3307C30.3787 2.12066 32 3.51006 32 5.26509V39.415C32 39.415 31.6587 40 31.3173 40H31.1467ZM1.36533 38.83H30.464V5.26509C30.464 4.24132 29.44 3.3638 28.2453 3.3638H24.1493C24.1493 3.3638 23.4667 3.07131 23.4667 2.7788V1.97441C23.4667 1.60878 23.1253 1.24316 22.6133 1.24316H9.216C8.78933 1.24316 8.36267 1.53565 8.36267 1.97441V2.7788C8.36267 2.7788 8.02133 3.3638 7.68 3.3638H3.584C2.38933 3.3638 1.36533 4.24132 1.36533 5.26509V38.83Z" fill="black"/>
<path d="M7.67876 6.1412C7.67876 6.1412 6.99609 5.84871 6.99609 5.55621V2.77741C6.99609 2.77741 7.33743 2.19238 7.67876 2.19238C8.02009 2.19238 8.36143 2.4849 8.36143 2.77741V5.55621C8.36143 5.55621 8.02009 6.1412 7.67876 6.1412Z" fill="black"/>
<path d="M24.1495 6.1412C24.1495 6.1412 23.4668 5.84871 23.4668 5.55621V2.77741C23.4668 2.77741 23.8081 2.19238 24.1495 2.19238C24.4908 2.19238 24.8321 2.4849 24.8321 2.77741V5.55621C24.8321 5.55621 24.4908 6.1412 24.1495 6.1412Z" fill="black"/>
<path d="M5.80376 39.9999C5.80376 39.9999 5.12109 39.7073 5.12109 39.4148V10.9688C5.12109 10.9688 5.46243 10.3838 5.80376 10.3838C6.14509 10.3838 6.48643 10.6763 6.48643 10.9688V39.4148C6.48643 39.4148 6.14509 39.9999 5.80376 39.9999Z" fill="black"/>
<path d="M26.0284 39.9999C26.0284 39.9999 25.3457 39.7073 25.3457 39.4148V10.9688C25.3457 10.9688 25.687 10.3838 26.0284 10.3838C26.3697 10.3838 26.711 10.6763 26.711 10.9688V39.4148C26.711 39.4148 26.3697 39.9999 26.0284 39.9999Z" fill="black"/>
<path d="M12.116 34.8092C11.4334 34.8092 10.7507 34.5898 10.2387 34.1511C9.7267 33.7123 9.4707 33.1273 9.4707 32.5423C9.4707 31.9573 9.7267 31.3723 10.2387 30.9335C11.2627 30.056 12.9694 30.056 13.9934 30.9335C14.5054 31.3723 14.7614 31.9573 14.7614 32.5423C14.7614 33.1273 14.5054 33.7123 13.9934 34.1511C13.4814 34.5898 12.7987 34.8092 12.116 34.8092ZM12.116 31.3723C12.116 31.3723 11.4334 31.4454 11.1774 31.6648C10.9214 31.8842 10.836 32.1767 10.836 32.4692C10.836 32.7617 11.0067 33.0542 11.1774 33.2736C11.6894 33.7123 12.4574 33.7123 12.9694 33.2736C13.2254 33.0542 13.3107 32.7617 13.3107 32.4692C13.3107 32.1767 13.14 31.8842 12.9694 31.6648C12.7134 31.4454 12.372 31.3723 12.0307 31.3723H12.116Z" fill="black"/>
<path d="M19.5399 34.8092C18.8572 34.8092 18.1745 34.5898 17.6625 34.1511C16.6385 33.2736 16.6385 31.811 17.6625 30.9335C18.6865 30.056 20.3932 30.056 21.4172 30.9335C22.4412 31.811 22.4412 33.2736 21.4172 34.1511C20.9052 34.5898 20.2225 34.8092 19.5399 34.8092ZM19.5399 31.3723C19.5399 31.3723 18.8572 31.4454 18.6012 31.6648C18.0892 32.1036 18.0892 32.7617 18.6012 33.2004C19.1132 33.6392 19.8812 33.6392 20.3932 33.2004C20.9052 32.7617 20.9052 32.1036 20.3932 31.6648C20.1372 31.4454 19.7959 31.3723 19.4545 31.3723H19.5399Z" fill="black"/>
<path d="M12.116 28.3707C11.4334 28.3707 10.7507 28.1513 10.2387 27.7126C9.2147 26.8351 9.2147 25.3726 10.2387 24.495C11.2627 23.6175 12.9694 23.6175 13.9934 24.495C15.0174 25.3726 15.0174 26.8351 13.9934 27.7126C13.4814 28.1513 12.7987 28.3707 12.116 28.3707ZM11.2627 25.3726C10.7507 25.8113 10.7507 26.4694 11.2627 26.9082C11.7747 27.347 12.5427 27.347 13.0547 26.9082C13.5667 26.4694 13.5667 25.8113 13.0547 25.3726C12.5427 24.9338 11.7747 24.9338 11.2627 25.3726Z" fill="black"/>
<path d="M19.5399 28.3707C18.8572 28.3707 18.1745 28.1513 17.6625 27.7126C16.6385 26.8351 16.6385 25.3726 17.6625 24.495C18.6865 23.6175 20.3932 23.6175 21.4172 24.495C22.4412 25.3726 22.4412 26.8351 21.4172 27.7126C20.9052 28.1513 20.2225 28.3707 19.5399 28.3707ZM19.5399 25.0069C19.5399 25.0069 18.8572 25.08 18.6012 25.2994C18.0892 25.7382 18.0892 26.3963 18.6012 26.8351C19.1132 27.2738 19.8812 27.2738 20.3932 26.8351C20.9052 26.3963 20.9052 25.7382 20.3932 25.2994C20.1372 25.08 19.7959 25.0069 19.4545 25.0069H19.5399Z" fill="black"/>
<path d="M15.8699 21.2799C14.4193 21.2799 13.2246 20.2562 13.2246 19.013C13.2246 17.7699 14.4193 16.7461 15.8699 16.7461C17.3206 16.7461 18.5153 17.7699 18.5153 19.013C18.5153 20.2562 17.3206 21.2799 15.8699 21.2799ZM15.8699 17.9161C15.1873 17.9161 14.5899 18.428 14.5899 19.013C14.5899 19.598 15.1873 20.1099 15.8699 20.1099C16.5526 20.1099 17.1499 19.598 17.1499 19.013C17.1499 18.428 16.5526 17.9161 15.8699 17.9161Z" fill="black"/>
<path d="M15.8699 14.9176C14.4193 14.9176 13.2246 13.8938 13.2246 12.6507C13.2246 11.4075 14.4193 10.3838 15.8699 10.3838C17.3206 10.3838 18.5153 11.4075 18.5153 12.6507C18.5153 13.8938 17.3206 14.9176 15.8699 14.9176ZM15.8699 11.5538C15.1873 11.5538 14.5899 12.0657 14.5899 12.6507C14.5899 13.2357 15.1873 13.7476 15.8699 13.7476C16.5526 13.7476 17.1499 13.2357 17.1499 12.6507C17.1499 12.0657 16.5526 11.5538 15.8699 11.5538Z" fill="black"/>
<path d="M19.2006 7.53355H12.5446C11.6059 7.53355 10.8379 6.87541 10.8379 6.07102V4.901C10.8379 4.09662 11.6059 3.43848 12.5446 3.43848H19.2006C20.1392 3.43848 20.9072 4.09662 20.9072 4.901V6.07102C20.9072 6.87541 20.1392 7.53355 19.2006 7.53355ZM12.5446 4.53538C12.5446 4.53538 12.2032 4.68161 12.2032 4.82786V5.99788C12.2032 5.99788 12.3739 6.29039 12.5446 6.29039H19.2006C19.2006 6.29039 19.5419 6.14413 19.5419 5.99788V4.82786C19.5419 4.82786 19.3712 4.53538 19.2006 4.53538H12.5446Z" fill="black"/>
<path d="M12.801 4.53462C12.801 4.53462 12.6303 4.53462 12.545 4.53462C12.2037 4.38837 12.033 4.02273 12.2037 3.73023L13.825 0.439546C13.825 0.439546 14.4223 0.000782281 14.7637 0.147035C15.105 0.293287 15.2757 0.658922 15.105 0.951426L13.4837 4.24211C13.4837 4.24211 13.1423 4.60773 12.801 4.60773V4.53462Z" fill="black"/>
<path d="M19.0286 4.53175C19.0286 4.53175 18.5166 4.38547 18.3459 4.1661L16.7246 0.875443C16.7246 0.875443 16.7246 0.217303 17.0659 0.0710511C17.4073 -0.0752012 17.8339 0.0710299 18.0046 0.363534L19.6259 3.65422C19.6259 3.65422 19.6259 4.31236 19.2846 4.45861C19.1993 4.45861 19.1139 4.45861 19.0286 4.45861V4.53175Z" fill="black"/>
</svg>
