<svg width="30" height="40" viewBox="0 0 30 40" fill="none" xmlns="http://www.w3.org/2000/svg">
<path d="M15.0009 22.8681C14.1278 22.8681 13.3341 22.3255 12.9373 21.5503C12.7785 21.2402 12.9373 20.7751 13.2548 20.6975C13.5722 20.5425 13.9691 20.6975 14.1278 21.0076C14.2865 21.3177 14.604 21.5503 14.9215 21.5503C15.239 21.5503 15.5564 21.3177 15.7152 21.0076C15.8739 20.6975 16.2708 20.5425 16.5882 20.6975C16.9057 20.8526 17.0645 21.2402 16.9057 21.5503C16.5089 22.3255 15.7152 22.8681 14.8421 22.8681H15.0009Z" fill="white"/>
<path d="M15.0019 26.2785C10.5572 26.2785 6.90625 22.7126 6.90625 18.3715V11.8598C6.90625 11.8598 7.22373 11.1621 7.5412 11.1621C8.65237 11.1621 10.2398 11.3947 12.1446 11.6272C15.6368 12.1699 20.399 12.8675 21.9864 11.5497C22.2245 11.3947 22.4626 11.3171 22.7007 11.4722C22.9388 11.5497 23.0975 11.7823 23.0975 12.0923V18.3715C23.0975 22.7126 19.4466 26.2785 15.0019 26.2785ZM8.3349 12.5575V18.3715C8.3349 22.0149 11.3509 24.9607 15.0813 24.9607C18.8116 24.9607 21.8276 22.0149 21.8276 18.3715V13.2552C19.4466 14.1079 15.5575 13.5652 12.0652 13.0226C10.716 12.79 9.3667 12.635 8.41427 12.5575H8.3349Z" fill="white"/>
<path d="M29.3651 39.9231C29.3651 39.9231 28.6507 39.613 28.6507 39.2254V38.7603C28.6507 33.644 24.3648 29.4579 19.1264 29.4579C18.7296 29.4579 18.4121 29.1478 18.4121 28.7602C18.4121 28.3726 18.7296 28.0625 19.1264 28.0625C25.0791 28.0625 30 32.7912 30 38.6828V39.1479C30 39.1479 29.6825 39.8456 29.2857 39.8456L29.3651 39.9231Z" fill="white"/>
<path d="M0.714323 39.9227C0.714323 39.9227 0 39.6126 0 39.225V38.7599C0 32.9459 4.84152 28.1396 10.8736 28.1396C11.2704 28.1396 11.5879 28.4497 11.5879 28.8373C11.5879 29.2249 11.2704 29.535 10.8736 29.535C5.63521 29.535 1.34928 33.7211 1.34928 38.8374V39.3026C1.34928 39.3026 1.0318 40.0002 0.634952 40.0002L0.714323 39.9227Z" fill="white"/>
<path d="M15.0002 34.8078C15.0002 34.8078 14.6034 34.7302 14.4446 34.5752L10.3175 29.3038C10.3175 29.3038 10.1587 28.6062 10.3968 28.3736C12.3811 26.7457 11.9048 25.5829 11.9048 25.5829C11.7461 25.2728 11.9048 24.8852 12.2223 24.6526C12.5398 24.4976 12.9366 24.6526 13.1747 24.9627C13.1747 25.0402 14.0478 26.8232 11.8255 28.9938L15.0002 33.1023L18.175 28.9938C15.9527 26.8232 16.7463 25.0402 16.8257 24.9627C16.9844 24.6526 17.3813 24.4976 17.7782 24.6526C18.0956 24.8077 18.2543 25.1953 18.0956 25.5829C18.0956 25.5829 17.6194 26.7457 19.6036 28.3736C19.9211 28.6062 19.9211 28.9938 19.683 29.3038L15.5558 34.5752C15.5558 34.5752 15.2383 34.8078 15.0002 34.8078Z" fill="white"/>
<path d="M22.3028 39.9228H16.9057C16.9057 39.9228 16.1914 39.6127 16.1914 39.2251V36.3569C16.1914 36.3569 16.5089 35.6592 16.9057 35.6592H22.3028C22.3028 35.6592 23.0172 35.9693 23.0172 36.3569V39.2251C23.0172 39.2251 22.6997 39.9228 22.3028 39.9228ZM17.6201 38.605H21.5885V37.0545H17.6201V38.605Z" fill="white"/>
<path d="M22.4612 19.0691C22.4612 19.0691 22.1437 19.0691 21.985 18.914C21.8262 18.759 21.7469 18.6039 21.7469 18.4489V12.1698C21.7469 12.1698 22.0644 11.4721 22.4612 11.4721C22.8581 11.4721 23.1755 11.7822 23.1755 12.1698V17.5187C23.1755 17.5187 23.8105 16.821 23.8105 16.3559V12.5574C23.8105 7.82863 19.9214 4.03013 15.0799 4.03013C10.2384 4.03013 6.34928 7.82863 6.34928 12.5574V16.3559C6.34928 16.821 6.58738 17.2861 6.98423 17.5187V17.2861C6.98423 17.2861 7.3017 16.5884 7.69855 16.5884C8.0954 16.5884 8.41287 16.8985 8.41287 17.2861V18.4489C8.41287 18.4489 8.3335 18.8365 8.17476 18.914C8.01602 19.0691 7.85729 19.1466 7.61918 19.0691C6.11117 18.9915 5 17.7512 5 16.2783V12.4798C5 7.05342 9.52404 2.63477 15.0799 2.63477C20.6357 2.63477 25.1598 7.05342 25.1598 12.4798V16.2783C25.1598 17.7512 23.9692 18.914 22.5406 19.0691H22.4612Z" fill="white"/>
<path d="M13.0975 17.8288C13.0975 17.8288 12.3832 17.5187 12.3832 17.1311C12.3832 16.7435 12.0657 16.3559 11.5895 16.3559C11.1133 16.3559 10.7958 16.666 10.7958 17.1311C10.7958 17.5187 10.4784 17.8288 10.0815 17.8288C9.68467 17.8288 9.36719 17.5187 9.36719 17.1311C9.36719 15.9683 10.3196 15.0381 11.5102 15.0381C12.7007 15.0381 13.6531 15.9683 13.6531 17.1311C13.6531 17.5187 13.3356 17.8288 12.9388 17.8288H13.0975Z" fill="white"/>
<path d="M19.9218 17.8288C19.9218 17.8288 19.2074 17.5187 19.2074 17.1311C19.2074 16.7435 18.8899 16.3559 18.4137 16.3559C17.9375 16.3559 17.6201 16.666 17.6201 17.1311C17.6201 17.5187 17.3026 17.8288 16.9057 17.8288C16.5089 17.8288 16.1914 17.5187 16.1914 17.1311C16.1914 15.9683 17.1438 15.0381 18.3344 15.0381C19.5249 15.0381 20.4773 15.9683 20.4773 17.1311C20.4773 17.5187 20.1599 17.8288 19.763 17.8288H19.9218Z" fill="white"/>
<path d="M11.6655 4.5737C11.6655 4.5737 11.4274 4.57369 11.2686 4.49617C11.1099 4.34113 10.9512 4.18609 10.9512 3.95353C10.9512 3.95353 10.9512 3.87601 10.9512 3.79849C10.9512 1.70544 12.7766 0 14.999 0C17.2213 0 19.0468 1.70544 19.0468 3.79849C19.0468 3.79849 19.0468 3.87601 19.0468 3.95353C19.0468 4.18609 18.8881 4.41865 18.7293 4.49617C18.5706 4.57369 18.3325 4.65122 18.0944 4.5737C16.1101 3.79849 13.9672 3.79849 11.9036 4.5737C11.9036 4.5737 11.7449 4.5737 11.6655 4.5737ZM14.999 1.31784C13.8878 1.31784 12.856 2.01553 12.5385 2.94578C14.2053 2.55818 15.872 2.55818 17.5388 2.94578C17.1419 2.01553 16.1895 1.31784 15.0784 1.31784H14.999Z" fill="white"/>
</svg>
