<svg width="34" height="40" viewBox="0 0 34 40" fill="none" xmlns="http://www.w3.org/2000/svg">
<path d="M22.9566 39.9843C21.8016 39.9843 20.8631 39.1135 20.7188 38.0251L19.275 27.7935L17.3981 24.3104C17.3981 24.3104 16.7484 24.3104 16.3874 24.3104L14.5106 27.7935L13.0668 38.0251C12.9224 39.2587 11.7674 40.1294 10.468 39.9843C9.24085 39.8392 8.37461 38.6781 8.51899 37.372L9.96273 26.705C9.96273 26.705 10.1071 26.1971 10.1793 25.9794L12.7781 21.045C12.7781 21.045 12.7059 20.4645 12.7059 20.1742V12.7726L6.93085 9.28955L2.59958 8.70903C1.37239 8.5639 0.506103 7.40287 0.650479 6.16928C0.722667 5.58876 1.01144 5.00824 1.51675 4.64542C2.02207 4.2826 2.5996 4.13747 3.1771 4.21004L7.94147 4.86312C7.94147 4.86312 8.519 5.00824 8.80775 5.15337L14.655 8.70903C15.8821 7.98339 17.4703 7.98339 18.6975 8.70903L24.5447 5.15337C24.5447 5.15337 25.1222 4.86312 25.4109 4.86312L30.1754 4.21004C30.7529 4.13747 31.4025 4.2826 31.8357 4.64542C32.341 5.00824 32.6297 5.58876 32.7019 6.16928C32.7741 6.74979 32.6298 7.40287 32.2688 7.83826C31.9079 8.34621 31.3304 8.63647 30.7529 8.70903L26.4216 9.28955L20.6466 12.7726V20.1742C20.6466 20.1742 20.6465 20.7547 20.5744 21.045L23.1731 25.9794C23.1731 25.9794 23.3897 26.4873 23.3897 26.705L24.8335 37.372C24.9778 38.6056 24.1116 39.7666 22.8844 39.9843C22.8122 39.9843 22.6678 39.9843 22.5956 39.9843H22.9566ZM17.759 22.9317C17.759 22.9317 18.1922 23.0768 18.3366 23.2945L20.43 27.2855C20.43 27.2855 20.43 27.4307 20.43 27.5032L21.8737 37.8799C21.9459 38.4604 22.4513 38.8233 23.0288 38.7507C23.6063 38.6781 23.9672 38.1702 23.895 37.5897L22.4513 26.9227C22.4513 26.9227 22.4512 26.705 22.3069 26.5599L19.5637 21.4078C19.5637 21.4078 19.4915 21.1175 19.5637 20.9724C19.6359 20.6822 19.7081 20.4645 19.7081 20.1742V12.4824C19.7081 12.4824 19.8525 12.047 19.9968 11.9744L26.1329 8.20108C26.1329 8.20108 26.2772 8.12852 26.3494 8.12852L30.825 7.548C30.825 7.548 31.3304 7.40287 31.4748 7.18518C31.6191 6.96748 31.6913 6.67723 31.6913 6.38697C31.6913 6.09671 31.5469 5.87902 31.3303 5.73389C31.1138 5.58876 30.825 5.5162 30.6085 5.5162L25.8441 6.16928C25.8441 6.16928 25.5553 6.16928 25.4831 6.3144L19.275 10.0878C19.275 10.0878 18.7697 10.2329 18.5531 10.0878C17.6147 9.36211 16.2431 9.36211 15.3047 10.0878C15.0881 10.2329 14.7993 10.2329 14.5827 10.0878L8.37458 6.3144C8.37458 6.3144 8.08587 6.16928 8.01368 6.16928L3.24925 5.5162C3.24925 5.5162 2.74394 5.5162 2.52738 5.73389C2.31082 5.87902 2.16642 6.16928 2.16642 6.38697C2.09423 6.96748 2.45519 7.47543 3.03269 7.548L7.50836 8.12852C7.50836 8.12852 7.65273 8.12852 7.72492 8.20108L13.8609 11.9744C13.8609 11.9744 14.1496 12.2647 14.1496 12.4824V20.1742C14.1496 20.1742 14.1496 20.6822 14.294 20.9724C14.294 21.1175 14.294 21.2627 14.294 21.4078L11.5509 26.5599C11.5509 26.5599 11.4787 26.7776 11.4065 26.9227L9.96273 37.5897C9.89054 38.1702 10.2515 38.6781 10.829 38.7507C11.4065 38.8233 11.9118 38.4604 11.984 37.8799L13.4278 27.5032C13.4278 27.5032 13.4278 27.3581 13.4278 27.2855L15.5934 23.2945C15.5934 23.2945 16.0265 22.9317 16.3153 23.0042C16.8206 23.1494 17.2537 23.1494 17.6868 23.0042C17.6868 23.0042 17.7591 23.0042 17.8312 23.0042L17.759 22.9317Z" fill="white"/>
<path d="M16.9646 7.83696C14.7989 7.83696 13.0664 6.09541 13.0664 3.91848C13.0664 1.74155 14.7989 0 16.9646 0C19.1302 0 20.8627 1.74155 20.8627 3.91848C20.8627 6.09541 19.1302 7.83696 16.9646 7.83696ZM16.9646 1.30616C15.5208 1.30616 14.3658 2.46719 14.3658 3.91848C14.3658 5.36977 15.5208 6.5308 16.9646 6.5308C18.4083 6.5308 19.5633 5.36977 19.5633 3.91848C19.5633 2.46719 18.4083 1.30616 16.9646 1.30616Z" fill="white"/>
<path d="M11.6203 25.4721C11.6203 25.4721 11.4037 25.4721 11.3316 25.4721C9.8878 24.819 9.09375 23.8031 9.09375 22.7872C9.09375 21.3359 10.6818 20.1023 13.2806 19.4492C13.4972 19.4492 13.6415 19.4492 13.7859 19.5943C13.9303 19.7395 14.0025 19.8846 14.0025 20.1023V20.32C14.0025 20.32 14.0025 20.8279 14.1469 21.1182C14.1469 21.2633 14.1469 21.4085 14.1469 21.5536L12.1978 25.2544C12.1978 25.2544 11.8369 25.6172 11.6203 25.6172V25.4721ZM12.9197 20.8279C11.4038 21.3359 10.3931 22.0615 10.3931 22.7146C10.3931 23.15 10.7541 23.5854 11.4038 23.9482L12.9197 21.0456C12.9197 21.0456 12.9197 20.9005 12.9197 20.8279Z" fill="white"/>
<path d="M22.2345 25.4707C22.2345 25.4707 21.8013 25.3256 21.657 25.1079L19.7079 21.4071C19.7079 21.4071 19.6357 21.1168 19.7079 20.9717C19.7801 20.6815 19.8523 20.4638 19.8523 20.1735V19.9558C19.8523 19.9558 19.9245 19.593 20.0688 19.4479C20.2132 19.3027 20.4298 19.3027 20.5741 19.3027C23.1729 19.9558 24.7611 21.1894 24.7611 22.6407C24.7611 23.6566 23.967 24.5999 22.5232 25.3256C22.4511 25.3256 22.3789 25.3256 22.2345 25.3256V25.4707ZM20.9351 21.0443L22.451 23.9469C23.1007 23.584 23.4617 23.1486 23.4617 22.7133C23.4617 21.9876 22.451 21.262 20.9351 20.8266C20.9351 20.8992 20.9351 20.9717 20.9351 21.0443Z" fill="white"/>
<path d="M16.9635 26.4866C16.2416 26.4866 15.5919 26.4866 14.87 26.3415C14.6534 26.3415 14.5091 26.1964 14.3647 25.9787C14.2925 25.761 14.2925 25.5433 14.3647 25.3982L15.5197 23.2212C15.5197 23.2212 15.9528 22.8584 16.2416 22.931C16.7469 23.0761 17.18 23.0761 17.6132 22.931C17.9019 22.931 18.1907 22.931 18.335 23.2212L19.49 25.3982C19.49 25.3982 19.5622 25.8336 19.49 25.9787C19.4178 26.1964 19.2013 26.2689 18.9847 26.3415C18.335 26.4141 17.6131 26.4866 16.8913 26.4866H16.9635ZM15.9528 25.1805C16.6025 25.1805 17.3244 25.1805 17.9741 25.1805L17.4688 24.2371C17.4688 24.2371 16.8191 24.2371 16.4581 24.2371L15.9528 25.1805Z" fill="white"/>
<path d="M16.9622 35.6314C16.9622 35.6314 16.3125 35.3411 16.3125 34.9783V25.8352C16.3125 25.8352 16.6012 25.1821 16.9622 25.1821C17.3231 25.1821 17.6119 25.4724 17.6119 25.8352V34.9783C17.6119 34.9783 17.3231 35.6314 16.9622 35.6314Z" fill="white"/>
<path d="M16.9658 37.3694C14.8001 37.3694 12.418 36.7163 12.418 35.265C12.418 33.8137 14.8001 33.1606 16.9658 33.1606C19.1314 33.1606 21.5136 33.8137 21.5136 35.265C21.5136 36.7163 19.1314 37.3694 16.9658 37.3694ZM16.9658 34.3942C14.8723 34.3942 13.7173 35.0473 13.6451 35.265C13.7173 35.4827 14.8723 36.0632 16.9658 36.0632C19.0592 36.0632 20.142 35.4827 20.2864 35.1925C20.142 34.9748 19.0592 34.3217 16.9658 34.3217V34.3942Z" fill="white"/>
<path d="M30.3176 27.4296C30.3176 27.4296 29.668 27.1393 29.668 26.7765V11.03C29.668 11.03 29.9567 10.377 30.3176 10.377C30.6786 10.377 30.9674 10.6672 30.9674 11.03V26.7765C30.9674 26.7765 30.6786 27.4296 30.3176 27.4296Z" fill="white"/>
<path d="M30.3184 29.0991C29.5244 29.0991 26.7812 29.0265 26.7812 27.7203C26.7812 26.4142 29.4522 26.269 30.3184 26.269C31.1847 26.269 33.8557 26.3416 33.8557 27.7203C33.8557 29.0991 31.1847 29.0991 30.3184 29.0991ZM28.6582 27.7203C29.0913 27.7929 29.6688 27.8655 30.3184 27.8655C30.9681 27.8655 31.6178 27.8655 31.9788 27.7203C31.5457 27.6478 30.9681 27.5752 30.3184 27.5752C29.6688 27.5752 29.0191 27.5752 28.6582 27.7203Z" fill="white"/>
<path d="M30.3184 30.9857C29.5244 30.9857 26.7812 30.9131 26.7812 29.5344V27.6477C26.7812 27.6477 27.07 26.9946 27.4309 26.9946C27.7919 26.9946 28.0806 27.2849 28.0806 27.6477V29.3893C28.0806 29.3893 29.1635 29.7521 30.3906 29.7521C31.6178 29.7521 32.4119 29.5344 32.7007 29.3893V27.6477C32.7007 27.6477 32.9894 26.9946 33.3504 26.9946C33.7113 26.9946 34 27.2849 34 27.6477V29.5344C34 30.8405 31.3291 30.9857 30.4628 30.9857H30.3184Z" fill="white"/>
<path d="M30.3168 11.6088C29.5228 11.6088 28.9453 10.9557 28.9453 10.2301V8.34343C28.9453 8.34343 29.1618 7.76291 29.5228 7.69035L30.9666 7.47266C30.9666 7.47266 30.9665 7.47266 31.0387 7.47266C31.2553 7.47266 31.3997 7.47266 31.5441 7.61778C31.6885 7.76291 31.7606 7.90804 31.7606 8.12574V10.2301C31.7606 11.0283 31.1109 11.6088 30.389 11.6088H30.3168ZM30.1725 8.85138V10.1575C30.1725 10.1575 30.1725 10.3027 30.3168 10.3027C30.4612 10.3027 30.4613 10.3027 30.4613 10.1575V8.77882H30.1725V8.85138Z" fill="white"/>
<path d="M3.53638 27.4296C3.53638 27.4296 2.88672 27.1393 2.88672 26.7765V11.03C2.88672 11.03 3.17544 10.377 3.53638 10.377C3.89732 10.377 4.1861 10.6672 4.1861 11.03V26.7765C4.1861 26.7765 3.89732 27.4296 3.53638 27.4296Z" fill="white"/>
<path d="M3.53719 29.0991C2.74313 29.0991 0 29.0265 0 27.7203C0 26.4142 2.67094 26.269 3.53719 26.269C4.40345 26.269 7.07438 26.3416 7.07438 27.7203C7.07438 29.0991 4.40345 29.0991 3.53719 29.0991ZM1.8769 27.7203C2.31003 27.7929 2.8875 27.8655 3.53719 27.8655C4.18688 27.8655 4.8366 27.8655 5.19754 27.7203C4.76441 27.6478 4.18688 27.5752 3.53719 27.5752C2.8875 27.5752 2.23784 27.5752 1.8769 27.7203Z" fill="white"/>
<path d="M3.53719 30.9857C2.74313 30.9857 0 30.9131 0 29.5344V27.6477C0 27.6477 0.288725 26.9946 0.649665 26.9946C1.0106 26.9946 1.29938 27.2849 1.29938 27.6477V29.3893C1.29938 29.3893 2.3822 29.7521 3.6094 29.7521C4.83659 29.7521 5.63065 29.5344 5.91941 29.3893V27.6477C5.91941 27.6477 6.20813 26.9946 6.56907 26.9946C6.93001 26.9946 7.21879 27.2849 7.21879 27.6477V29.5344C7.21879 30.8405 4.54785 30.9857 3.6816 30.9857H3.53719Z" fill="white"/>
<path d="M3.53565 11.6088C2.74158 11.6088 2.16406 10.9557 2.16406 10.2301V8.12574C2.16406 8.12574 2.2363 7.76291 2.38067 7.61778C2.52505 7.47266 2.74161 7.47266 2.88599 7.47266C2.88599 7.47266 2.88595 7.47266 2.95813 7.47266L4.40193 7.69035C4.40193 7.69035 4.97944 7.98061 4.97944 8.34343V10.2301C4.97944 11.0283 4.32973 11.6088 3.60785 11.6088H3.53565ZM3.3913 8.85138V10.2301C3.3913 10.2301 3.68006 10.3752 3.68006 10.2301V8.92395H3.3913V8.85138Z" fill="white"/>
</svg>
