<svg width="81" height="84" viewBox="0 0 81 84" fill="none" xmlns="http://www.w3.org/2000/svg">
<path d="M39.6006 37.9373C39.6124 37.9452 39.6222 37.953 39.634 37.9609C39.7398 38.1118 39.9672 38.3901 40.3102 38.4058H40.3415C40.7002 38.4058 40.9354 38.1137 41.0922 37.9197C41.1334 37.8687 41.1706 37.8197 41.2098 37.7805C43.4501 35.5462 45.6864 33.3098 47.9228 31.0715C51.3704 27.6219 54.9357 24.0527 58.4559 20.56C61.3567 17.6807 62.6012 14.2899 62.1504 10.4777C61.6898 6.56951 59.7651 3.62167 56.439 1.72243C52.9992 -0.361051 49.287 -0.555091 45.4042 1.14423C43.7166 1.88315 42.3858 3.11207 41.3078 4.21947C40.561 4.98387 40.1004 4.98975 39.3341 4.24495C39.191 4.10579 39.0499 3.96271 38.9068 3.82159C38.7539 3.66871 38.601 3.51387 38.4442 3.36295C34.3733 -0.594291 28.0523 -1.10193 23.413 2.15167C20.5475 4.16263 18.7208 7.31039 18.3993 10.7874C18.0838 14.2115 19.2813 17.5808 21.6823 20.0288C25.8042 24.2311 30.0456 28.4529 34.146 32.5375C35.8884 34.2721 37.6289 36.0067 39.3674 37.7433C39.4458 37.8217 39.5301 37.8825 39.6026 37.9354L39.6006 37.9373ZM22.2409 19.482C20.0006 17.1986 18.8854 14.0567 19.1794 10.8619C19.4773 7.61419 21.1845 4.67419 23.8618 2.79651C25.7709 1.45783 27.9818 0.801229 30.1868 0.801229C32.9856 0.801229 35.7708 1.86159 37.8974 3.92743C38.0503 4.07639 38.2012 4.22731 38.3502 4.37627C38.4952 4.52131 38.6383 4.66439 38.7853 4.80747C39.8652 5.85803 40.8158 5.84627 41.8664 4.76827C42.8934 3.71575 44.1518 2.54759 45.7158 1.86355C49.4026 0.250469 52.7777 0.422949 56.0392 2.40059C59.1458 4.17439 60.9392 6.92427 61.3704 10.5718C61.7957 14.1821 60.6628 17.2672 57.9031 20.0053C54.381 23.5 50.8158 27.0691 47.3681 30.5187C45.1318 32.7571 42.8974 34.9934 40.6571 37.2278C40.5944 37.2905 40.5375 37.3611 40.4826 37.4297C40.4454 37.4767 40.3886 37.5453 40.3435 37.5904C40.32 37.5669 40.2886 37.5277 40.2514 37.4689C40.2278 37.4336 40.1984 37.4023 40.1651 37.3748C40.1318 37.3493 40.0985 37.3239 40.0632 37.2984C40.0083 37.2592 39.9574 37.2219 39.9221 37.1867C38.1836 35.4481 36.4411 33.7135 34.7006 31.9789C30.6023 27.8963 26.3628 23.6764 22.2448 19.4781L22.2409 19.482Z" fill="#3B5998"/>
<path d="M43.634 26.5497V21.583H48.6007C48.8163 21.583 48.9927 21.4066 48.9927 21.191V15.2895C48.9927 15.0739 48.8163 14.8975 48.6007 14.8975H43.634V9.93082C43.634 9.71522 43.4576 9.53882 43.242 9.53882H37.3405C37.1249 9.53882 36.9485 9.71522 36.9485 9.93082V14.8975H31.9818C31.7662 14.8975 31.5898 15.0739 31.5898 15.2895V21.191C31.5898 21.4066 31.7662 21.583 31.9818 21.583H36.9485V26.5497C36.9485 26.7653 37.1249 26.9417 37.3405 26.9417H43.242C43.4576 26.9417 43.634 26.7653 43.634 26.5497Z" fill="#3B5998"/>
<path d="M37.0415 68.7035C36.7749 68.435 36.3947 68.3958 36.0203 68.3958H36.0066L34.8032 68.3997C34.8032 66.8062 34.8032 60.644 34.7738 55.3735C34.7404 49.1427 30.056 46.5751 29.7287 46.4046C29.5856 46.3203 27.8177 45.2736 25.6441 43.9879C23.4058 37.3533 19.6249 26.2303 19.0722 25.0935C18.7821 24.4957 17.9021 22.6748 15.5422 23.3628C15.4658 23.3863 15.3972 23.4098 15.3286 23.4334C14.5681 21.2695 14.1193 20.0563 13.9605 19.729C13.6704 19.1312 12.7884 17.3142 10.4345 18.0002C10.3365 18.0296 9.59364 18.2609 9.12912 18.794C9.0664 18.6412 9.0174 18.5255 8.98016 18.4491C8.69008 17.8513 7.80808 16.0304 5.45216 16.7184C4.57016 16.9771 3.96452 17.4338 3.65484 18.0747C3.26088 18.8901 3.34712 19.97 3.91944 21.3754C4.07036 21.7458 4.235 22.226 4.3722 22.6513C3.73716 22.4063 2.90808 22.3299 1.87124 22.7023C1.86536 22.7042 1.85948 22.7062 1.8536 22.7082C1.85164 22.7082 1.84968 22.7082 1.84772 22.7101C1.36556 22.8865 0.969638 23.1492 0.669758 23.4922C0.577638 23.598 0.493358 23.7117 0.420837 23.8312C0.318917 23.9978 0.234638 24.1801 0.169958 24.3722C0.150358 24.433 0.130757 24.4937 0.115077 24.5545C-0.182843 25.6638 0.185637 26.8104 0.238557 26.9692C0.391437 27.5356 5.2934 45.7538 5.44628 46.3281L5.83828 47.7922C6.11072 48.8134 6.45568 49.6934 6.89276 50.4853C7.76496 52.0611 8.92528 53.1254 10.1366 54.1662C10.3463 54.3465 10.5619 54.5288 10.7834 54.715C11.2459 55.107 11.7242 55.5107 12.2298 55.9615L14.1487 57.6687C15.8225 59.1681 17.5062 60.7282 18.5097 62.0081C18.5097 62.0101 18.5136 62.012 18.5156 62.014C18.6018 62.1257 18.6841 62.2355 18.7606 62.3413C19.0114 62.6922 19.1878 62.9979 19.2898 63.2508C19.8464 64.6482 19.7778 67.3707 19.7288 68.3997L18.4783 68.3958C18.0765 68.3958 17.6669 68.431 17.3866 68.7133C17.1044 68.9994 17.073 69.4169 17.0769 69.7501C17.122 72.7724 17.122 78.8955 17.0769 82.1118C17.071 82.449 17.1024 82.8723 17.3866 83.1585C17.659 83.4329 18.0589 83.476 18.4234 83.476H18.4724C20.9538 83.4505 22.6786 83.4525 24.6778 83.4564C25.4657 83.4564 26.3046 83.4603 27.265 83.4603C28.2254 83.4603 29.0349 83.4603 29.8032 83.4584C31.8671 83.4544 33.4958 83.4525 35.9948 83.474C36.3751 83.478 36.7671 83.4427 37.0376 83.1702C37.31 82.8958 37.3414 82.494 37.3355 82.1785C37.2943 79.0288 37.2943 72.8489 37.3355 69.6992C37.3394 69.3797 37.31 68.9798 37.0395 68.7054L37.0415 68.7035ZM15.7676 24.1154C17.2827 23.6725 17.9334 24.5349 18.3705 25.4365C18.7508 26.2205 21.0185 32.7394 24.6131 43.3783C23.592 42.7746 22.5257 42.1455 21.5261 41.5575C18.933 33.8723 16.8868 27.8786 15.5912 24.1742C15.6481 24.1546 15.7049 24.135 15.7676 24.1154ZM9.60148 19.484C9.8014 19.0802 10.4306 18.8215 10.656 18.7548C12.1691 18.3138 12.8218 19.1723 13.2569 20.072C13.3608 20.2876 13.6998 21.1578 14.7249 24.0762C15.9636 27.6101 17.953 33.4294 20.4912 40.9499C18.7723 39.9385 17.512 39.2055 17.1122 38.982C16.7927 38.8076 16.4438 38.692 16.0734 38.639C15.5952 37.2337 11.2675 24.5427 9.5956 20.0151V20.0112C9.51916 19.8132 9.52308 19.6447 9.60148 19.484ZM4.36436 18.4177C4.57604 17.9787 5.00528 17.669 5.6756 17.473C7.18872 17.03 7.8414 17.8924 8.27848 18.7921C8.3412 18.9234 8.49408 19.2899 8.86256 20.2856C10.4502 24.5878 14.4446 36.2851 15.2384 38.6116C14.3564 38.6743 13.6685 38.9938 13.6214 39.0154C13.0883 39.2956 12.2396 40.0698 12.1201 41.2615C11.9633 41.091 11.8104 40.8891 11.7046 40.6598C11.5184 40.1267 6.72812 25.7834 6.44588 24.9112C6.3518 24.6211 6.05976 23.9018 5.39924 23.2981C5.29144 22.9375 4.94844 21.8085 4.65052 21.0794C4.17424 19.9073 4.0782 19.0116 4.36632 18.4158L4.36436 18.4177ZM34.0192 68.4016H20.5167C20.5716 67.2531 20.6304 64.4875 20.0208 62.9607C19.8954 62.6471 19.6935 62.2962 19.4034 61.8886C19.3211 61.7729 19.231 61.6534 19.1369 61.5318C19.1369 61.5318 19.1369 61.5318 19.1349 61.5299C18.0981 60.2049 16.3811 58.6114 14.6779 57.0866L14.6622 57.0728L12.7571 55.3774C12.2436 54.9208 11.7614 54.5131 11.2949 54.1191C11.0754 53.9329 10.8618 53.7526 10.652 53.5723C9.49564 52.5805 8.39216 51.5711 7.58464 50.107C7.17892 49.372 6.85748 48.5488 6.60072 47.5904L6.20676 46.1262C6.04996 45.5422 0.995118 26.7536 0.995118 26.7536C0.993158 26.7438 0.989238 26.734 0.985318 26.7242C0.981398 26.7144 0.626638 25.6874 0.873598 24.7603C0.885358 24.7152 0.899078 24.6701 0.914758 24.625C0.961798 24.4878 1.0206 24.3604 1.09312 24.2428C1.14212 24.1605 1.20092 24.0821 1.26364 24.0096C1.47532 23.7666 1.7654 23.5764 2.12408 23.4471C2.12996 23.4451 2.13584 23.4432 2.14172 23.4412H2.14564C3.18444 23.0708 4.07624 23.1942 4.79556 23.8116C5.3914 24.3193 5.6364 24.972 5.69912 25.1582C5.74812 25.3071 10.9304 40.8578 10.9833 40.9695C11.293 41.6633 11.8986 42.1572 12.1946 42.367C12.3494 43.051 12.8355 44.2544 14.3447 45.3011C15.505 46.1047 21.3752 50.2364 22.8903 52.5648C22.9648 52.6805 23.0902 52.7432 23.2196 52.7432C23.2921 52.7432 23.3666 52.7236 23.4332 52.6805C23.6155 52.5629 23.6664 52.3198 23.5488 52.1376C21.9926 49.7464 16.4517 45.8068 14.7916 44.6562C13.4607 43.735 13.0707 42.71 12.955 42.1808C12.959 42.1416 12.957 42.1004 12.9492 42.0592C12.6003 40.4756 13.9331 39.7406 13.9723 39.719C13.9801 39.7151 14.7641 39.3525 15.6598 39.3878C16.0558 39.3995 16.4203 39.4956 16.7378 39.668C17.1984 39.9228 18.8331 40.8774 21.0048 42.1572C22.3395 42.9412 23.8036 43.8056 25.1266 44.5876C27.4512 45.9616 29.3446 47.0827 29.3446 47.0827C29.3504 47.0866 29.3583 47.0906 29.3642 47.0945C29.5523 47.1925 33.9643 49.5464 33.9937 55.3755C34.0211 60.644 34.0231 66.8062 34.0231 68.4016H34.0192Z" fill="#3B5998"/>
<path d="M68.3504 55.9635C68.8581 55.5127 69.3363 55.107 69.8008 54.715C70.0204 54.5288 70.236 54.3465 70.4437 54.1681C71.657 53.1274 72.8173 52.065 73.6875 50.4872C74.1246 49.6954 74.4696 48.8134 74.742 47.7942L75.136 46.3301C75.2908 45.7558 80.1908 27.5396 80.3437 26.9712C80.3966 26.8144 80.7651 25.6658 80.4672 24.5584C80.4515 24.4976 80.4319 24.4369 80.4123 24.3742C80.3476 24.1821 80.2633 23.9998 80.1614 23.8332C80.0869 23.7136 80.0046 23.6 79.9125 23.4941C79.6126 23.1511 79.2167 22.8885 78.7345 22.7121C78.7326 22.7121 78.7306 22.7121 78.7267 22.7101C78.7208 22.7082 78.7149 22.7062 78.709 22.7042C77.6722 22.3318 76.8431 22.4083 76.2081 22.6533C76.3453 22.2299 76.5099 21.7478 76.6608 21.3773C77.2312 19.972 77.3174 18.892 76.9235 18.0767C76.6138 17.4358 76.0101 16.9791 75.1262 16.7204C72.7722 16.0324 71.8882 17.8532 71.5982 18.451C71.5609 18.5255 71.5119 18.6431 71.4492 18.796C70.9847 18.2629 70.2418 18.0316 70.1438 18.0022C67.7879 17.3142 66.9059 19.1331 66.6158 19.7309C66.459 20.0563 66.0102 21.2695 65.2497 23.4334C65.1811 23.4098 65.1086 23.3863 65.0341 23.3628C62.6802 22.6768 61.7962 24.4957 61.5061 25.0935C60.9534 26.2303 57.1745 37.3552 54.9342 43.9879C52.7606 45.2717 50.9927 46.3183 50.8496 46.4046C50.5242 46.5751 45.8379 49.1427 45.8046 55.3735C45.7771 60.644 45.7752 66.8062 45.7752 68.3997L44.5717 68.3958C44.1915 68.3958 43.8054 68.431 43.5368 68.7035C43.2644 68.9779 43.235 69.3797 43.2409 69.6972C43.282 72.8469 43.282 79.0268 43.2409 82.1765C43.237 82.494 43.2664 82.8939 43.5388 83.1702C43.8093 83.4427 44.1974 83.476 44.5815 83.474C47.0786 83.4525 48.7093 83.4544 50.7712 83.4584C51.5415 83.4584 52.3647 83.4603 53.3094 83.4603C54.2541 83.4603 55.1087 83.4603 55.8966 83.4564C57.8938 83.4525 59.6206 83.4505 62.102 83.476H62.151C62.5155 83.476 62.9154 83.4329 63.1878 83.1585C63.474 82.8723 63.5034 82.449 63.4975 82.1118C63.4544 78.8955 63.4544 72.7724 63.4975 69.7482C63.5014 69.4169 63.47 68.9975 63.1878 68.7133C62.9075 68.431 62.4998 68.3958 62.0961 68.3958L60.8436 68.3997C60.7946 67.3844 60.7241 64.6522 61.2827 63.2508C61.3826 62.9979 61.561 62.6922 61.8119 62.3413C61.8883 62.2335 61.9706 62.1257 62.0569 62.014C62.0569 62.014 62.0569 62.014 62.0588 62.012C63.0584 60.7361 64.746 59.17 66.4218 57.6687L66.1611 57.3766L66.4375 57.655L68.3406 55.9615L68.3504 55.9635ZM71.7236 20.2876C72.0921 19.2899 72.245 18.9254 72.3077 18.794C72.7448 17.8924 73.3955 17.032 74.9086 17.475C75.5789 17.671 76.0082 17.9806 76.2198 18.4197C76.508 19.0155 76.4119 19.9112 75.9356 21.0833C75.6377 21.8144 75.2947 22.9434 75.1869 23.304C74.5264 23.9096 74.2344 24.627 74.1403 24.9171C73.858 25.7873 69.0658 40.1326 68.8816 40.6637C68.7777 40.893 68.6229 41.0969 68.4661 41.2674C68.3465 40.0738 67.4939 39.2976 66.949 39.0114C66.9157 38.9958 66.2238 38.6763 65.3477 38.6136C66.1415 36.2851 70.136 24.5878 71.7236 20.2876ZM65.8593 24.0782C66.8844 21.1598 67.2234 20.2895 67.3254 20.0759C67.7624 19.1762 68.4132 18.3158 69.9282 18.7568C70.1536 18.8234 70.7828 19.0822 70.9827 19.4859C71.0631 19.6466 71.065 19.8152 70.9886 20.0132V20.0171C69.3187 24.5447 64.989 37.2376 64.5108 38.641C64.1384 38.6959 63.7895 38.8096 63.47 38.986C63.0702 39.2074 61.8099 39.9405 60.093 40.9518C62.6312 33.4333 64.6206 27.6121 65.8593 24.0782ZM62.2156 25.4365C62.6527 24.5349 63.3034 23.6744 64.8166 24.1154C64.8812 24.135 64.9381 24.1546 64.9949 24.1742C63.7013 27.8786 61.6531 33.8723 59.06 41.5575C58.0604 42.1455 56.9942 42.7746 55.973 43.3783C59.5677 32.7394 61.8354 26.2205 62.2156 25.4365ZM65.924 57.0728L65.9083 57.0866C64.205 58.6114 62.4861 60.2049 61.4532 61.526C61.4512 61.5279 61.4493 61.5318 61.4473 61.5338C61.3532 61.6534 61.265 61.7729 61.1827 61.8886C60.8926 62.2962 60.6908 62.6471 60.5634 62.9607C59.9558 64.4856 60.0106 67.2433 60.0675 68.4016H46.565C46.565 66.8062 46.565 60.6459 46.5944 55.3755C46.6258 49.5464 51.0378 47.1905 51.224 47.0945C51.2318 47.0906 51.2377 47.0866 51.2436 47.0827C51.2436 47.0827 53.1369 45.9616 55.4615 44.5876L55.5066 44.5622C56.8178 43.788 58.2623 42.9334 59.5834 42.1572C61.755 40.8774 63.3897 39.9228 63.8483 39.668C64.1678 39.4936 64.5304 39.3976 64.9302 39.3858C65.7632 39.3544 66.5178 39.6739 66.608 39.7131C66.7276 39.7798 67.8075 40.4246 67.686 41.7476C67.6821 41.7692 67.6801 41.7907 67.6782 41.8123C67.6684 41.8926 67.6566 41.973 67.639 42.0573C67.6311 42.0926 67.6292 42.1278 67.6311 42.1651C67.5194 42.6904 67.1333 43.7252 65.7926 44.6543C64.1325 45.8048 58.5916 49.7444 57.0354 52.1356C56.9178 52.3179 56.9687 52.5609 57.151 52.6785C57.2176 52.7216 57.2902 52.7412 57.3646 52.7412C57.492 52.7412 57.6175 52.6785 57.6939 52.5629C59.209 50.2344 65.0792 46.1027 66.2395 45.2991C67.7468 44.2544 68.2328 43.0549 68.3896 42.3689C68.6817 42.1612 69.2912 41.6672 69.6009 40.9734C69.6578 40.8558 74.84 25.3032 74.887 25.1542C74.9478 24.9661 75.1948 24.3134 75.7906 23.8058C76.508 23.1884 77.3998 23.0649 78.4405 23.4373C78.4464 23.4392 78.4523 23.4412 78.4582 23.4451C78.8168 23.5745 79.1069 23.7646 79.3186 24.0076C79.3813 24.0802 79.4382 24.1586 79.4891 24.2409C79.5597 24.3565 79.6204 24.4859 79.6655 24.6231C79.6812 24.6682 79.6949 24.7132 79.7067 24.7583C79.9556 25.6854 79.5989 26.7124 79.595 26.7222C79.591 26.732 79.5891 26.7418 79.5852 26.7516C79.5852 26.7516 74.5303 45.5402 74.3735 46.1243L73.9796 47.5904C73.7248 48.5488 73.4014 49.372 72.9956 50.107C72.1881 51.5692 71.0827 52.5805 69.9282 53.5723C69.7205 53.7506 69.5088 53.931 69.2893 54.1152C68.8228 54.5111 68.3387 54.9188 67.8252 55.3774L65.922 57.0728H65.924Z" fill="#3B5998"/>
</svg>
