<svg width="88" height="88" viewBox="0 0 88 88" fill="none" xmlns="http://www.w3.org/2000/svg">
<path d="M5.92461 62.2751C4.15794 59.6251 1.94961 49.4668 1.06628 44.1668C0.62461 42.4001 0.182944 41.0751 0.182944 40.1918C-0.258722 37.9834 0.182944 37.5418 0.624611 37.1001H1.50794C1.94961 37.1001 2.39128 37.9834 2.39128 38.8668C3.27461 42.4001 6.80795 49.4668 6.80795 49.9084C6.80795 51.2334 8.13295 53.8834 10.7829 56.9751C12.9913 59.6251 15.6413 61.8334 16.9663 63.6001C17.8496 64.4834 19.1746 65.8084 19.6163 66.2501C19.6163 66.6918 20.0579 67.1334 20.4996 67.5751H21.3829C22.2663 67.5751 22.7079 67.1334 23.1496 66.6918C24.0329 64.9251 23.1496 64.0418 19.6163 60.5084C17.8496 58.7418 15.6413 56.5334 13.4329 53.8834C10.7829 50.7918 10.3413 49.4668 10.3413 49.0251C10.7829 48.5834 11.2246 48.1418 11.6663 48.1418C12.1079 48.1418 12.5496 48.5834 12.9913 49.0251C15.1996 51.6751 20.4996 56.9751 27.1246 60.9501C27.5663 61.3918 28.4496 61.8334 28.8913 62.2751C33.3079 64.4834 38.6079 67.1334 39.0496 79.5001H23.1496C18.7329 75.0834 8.13295 64.9251 5.92461 62.2751ZM21.3829 87.8918V83.0334H40.8163H41.2579V87.8918H21.3829ZM65.5496 87.8918H45.6746V83.0334H46.1163H65.5496V87.8918ZM86.7496 40.6334C86.7496 41.0751 86.3079 42.8418 85.8663 44.6084C84.5413 49.4668 82.3329 60.0668 80.5663 62.7168C78.3579 65.3668 67.7579 75.5251 63.3413 79.5001H47.8829C47.8829 67.1334 53.1829 64.4834 57.5996 62.2751C58.4829 61.8334 58.9246 61.3918 59.3663 60.9501C65.9913 57.4168 71.2913 51.6751 73.4996 49.0251C73.9413 48.5834 74.3829 48.1418 74.8246 48.1418C75.2663 48.1418 75.7079 48.5834 76.1496 49.4668C76.1496 49.9084 75.7079 51.2334 73.0579 54.3251C70.8496 56.9751 68.6413 59.1834 66.8746 60.9501C63.3413 64.4834 62.458 65.3668 63.3413 66.6918C63.783 67.5751 64.2246 67.5751 65.1079 67.5751H65.9913C66.4329 67.1334 66.8746 66.6918 66.8746 66.2501C67.3163 65.8084 68.1996 64.4834 69.5246 63.6001C71.2913 61.8334 73.4996 59.6251 76.1496 56.9751C78.7996 53.8834 79.6829 51.6751 80.1246 49.9084C80.1246 49.4668 83.6579 42.4001 84.5413 38.8668C84.9829 37.9834 84.9829 37.5418 85.8663 37.1001H86.3079C87.1913 37.5418 87.6329 37.9834 86.7496 40.6334Z" fill="#3B5998"/>
<path d="M18.7324 17.6667H34.6324C35.9574 17.6667 36.8408 16.7833 36.8408 15.4583V0H50.9741V15.9C50.9741 17.225 51.8574 18.1083 53.1824 18.1083H69.0824V32.2417H53.1824C52.2991 32.2417 50.9741 33.125 50.9741 34.45V50.35H36.8408V34.0083C36.8408 33.125 35.9574 31.8 34.6324 31.8H18.7324V17.6667Z" fill="#3B5998"/>
</svg>
