<svg width="97" height="97" viewBox="0 0 97 97" fill="none" xmlns="http://www.w3.org/2000/svg">
<g clip-path="url(#clip0_5957_1761)">
<path d="M79.6621 9.70005H63.0963V8.3663C63.0924 7.79271 62.8627 7.24374 62.4571 6.83814C62.0515 6.43254 61.5026 6.20293 60.929 6.19896H55.4121C55.2331 4.49271 54.4286 2.91319 53.1537 1.7651C51.8789 0.617012 50.2241 -0.0183105 48.5084 -0.0183105C46.7928 -0.0183105 45.138 0.617012 43.8631 1.7651C42.5883 2.91319 41.7838 4.49271 41.6048 6.19896H36.0879C35.5102 6.1989 34.9558 6.42627 34.5445 6.83188C34.1333 7.23749 33.8982 7.78871 33.8902 8.3663V9.70005H17.3396C16.2891 9.69601 15.2797 10.1084 14.5326 10.847C13.7855 11.5856 13.3615 12.5901 13.3535 13.6407V93.0443C13.3555 93.5657 13.4602 94.0817 13.6616 94.5627C13.863 95.0437 14.1571 95.4804 14.5273 95.8477C14.8974 96.215 15.3363 96.5059 15.8188 96.7036C16.3014 96.9013 16.8181 97.002 17.3396 97.0001H79.6621C80.1836 97.002 80.7003 96.9013 81.1829 96.7036C81.6654 96.5059 82.1043 96.215 82.4744 95.8477C82.8446 95.4804 83.1387 95.0437 83.3401 94.5627C83.5415 94.0817 83.6462 93.5657 83.6482 93.0443V13.6407C83.6402 12.5901 83.2162 11.5856 82.4691 10.847C81.722 10.1084 80.7127 9.69601 79.6621 9.70005ZM77.4948 89.3158C77.4948 89.7459 77.3239 90.1584 77.0198 90.4626C76.7156 90.7667 76.3032 90.9376 75.873 90.9376H21.1287C20.6972 90.9376 20.2831 90.7672 19.9766 90.4635C19.67 90.1598 19.4958 89.7473 19.4918 89.3158V18.1875C19.4958 17.7561 19.67 17.3436 19.9766 17.0399C20.2831 16.7362 20.6972 16.5658 21.1287 16.5658H33.8902V19.5971C33.8982 20.1747 34.1333 20.7259 34.5445 21.1315C34.9558 21.5371 35.5102 21.7645 36.0879 21.7644H60.929C61.2147 21.7685 61.4984 21.7152 61.7632 21.6078C62.028 21.5003 62.2685 21.3408 62.4706 21.1387C62.6727 20.9366 62.8322 20.6961 62.9397 20.4313C63.0471 20.1665 63.1004 19.8828 63.0963 19.5971V16.5658H75.873C76.3032 16.5658 76.7156 16.7367 77.0198 17.0408C77.3239 17.345 77.4948 17.7574 77.4948 18.1875V89.3158Z" fill="#3B5998"/>
<path d="M63.4747 31.328C58.6854 29.8124 55.2752 29.8124 53.0321 31.328C52.1018 32.0836 51.364 33.049 50.8792 34.145C50.3944 35.2411 50.1765 36.4364 50.2433 37.633C49.7475 38.0907 49.3005 38.5986 48.9096 39.1486C48.6088 38.2208 48.202 37.3308 47.6971 36.4963C48.3375 35.287 48.6193 33.92 48.5092 32.556C48.3991 31.192 47.9018 29.8878 47.0757 28.7969C44.5749 25.9324 39.4975 25.3413 33.5108 27.2055C33.3292 27.2616 33.1767 27.3866 33.0861 27.5538C32.9954 27.7209 32.9738 27.9169 33.0258 28.0997C34.5415 33.9652 36.9058 37.6785 39.9825 38.8152C40.6755 39.0755 41.4097 39.209 42.1499 39.2093C43.7705 39.1647 45.3459 38.6658 46.6968 37.7694C47.3263 38.8622 47.738 40.0666 47.9093 41.316C47.9995 41.9687 48.035 42.6277 48.0154 43.2863V44.5443H41.6346C40.9186 44.6148 40.2511 44.9376 39.7513 45.4551C39.2515 45.9726 38.9521 46.651 38.9065 47.369C38.861 48.087 39.0723 48.7977 39.5026 49.3742C39.933 49.9507 40.5544 50.3554 41.2557 50.5158V53.2136V56.0176V64.6415V78.5397C41.209 79.6028 41.3781 80.6643 41.7528 81.6602C42.1274 82.6561 42.6999 83.5659 43.4356 84.3346C44.1713 85.1034 45.0551 85.7151 46.0337 86.1331C47.0122 86.5511 48.0653 86.7665 49.1293 86.7665C50.1934 86.7665 51.2465 86.5511 52.225 86.1331C53.2036 85.7151 54.0874 85.1034 54.8231 84.3346C55.5588 83.5659 56.1313 82.6561 56.5059 81.6602C56.8806 80.6643 57.0497 79.6028 57.003 78.5397V50.3946C57.6737 50.1807 58.249 49.7401 58.6302 49.1484C59.0115 48.5566 59.1749 47.8506 59.0924 47.1516C59.01 46.4525 58.6868 45.8039 58.1783 45.3171C57.6699 44.8303 57.0078 44.5356 56.3058 44.4837H49.4249V43.2408C49.479 42.6004 49.479 41.9565 49.4249 41.316C49.8356 40.5225 50.3448 39.7842 50.9405 39.1183C51.4851 39.7243 52.1512 40.2089 52.8954 40.5406C53.6396 40.8722 54.4453 41.0434 55.26 41.0432C55.9603 41.04 56.6557 40.9275 57.3213 40.7097C59.1582 40.0766 60.7698 38.9199 61.9575 37.3822C63.1451 35.8444 63.8569 33.9928 64.0052 32.0555C64.017 31.8911 63.9703 31.7278 63.8731 31.5947C63.776 31.4615 63.6349 31.367 63.4747 31.328ZM55.5177 50.4855V73.2199C54.744 73.5532 53.9038 73.7034 53.0626 73.6587C52.2213 73.614 51.4017 73.3757 50.6677 72.9622C49.7329 72.5184 48.9016 71.8833 48.2275 71.098C46.7995 69.4671 44.8692 68.3579 42.741 67.9455V65.3993H47.0757C47.2767 65.3993 47.4694 65.3194 47.6115 65.1773C47.7536 65.0352 47.8335 64.8424 47.8335 64.6415C47.8335 64.4405 47.7536 64.2477 47.6115 64.1056C47.4694 63.9635 47.2767 63.8837 47.0757 63.8837H42.741V62.4893H45.0447C45.2457 62.4893 45.4385 62.4094 45.5806 62.2673C45.7227 62.1252 45.8025 61.9324 45.8025 61.7315C45.8025 61.5305 45.7227 61.3377 45.5806 61.1956C45.4385 61.0535 45.2457 60.9736 45.0447 60.9736H42.741V59.6551H47.0757C47.2767 59.6551 47.4694 59.5752 47.6115 59.4331C47.7536 59.291 47.8335 59.0982 47.8335 58.8972C47.8335 58.6963 47.7536 58.5035 47.6115 58.3614C47.4694 58.2193 47.2767 58.1394 47.0757 58.1394H42.741V56.6238H45.0447C45.2457 56.6238 45.4385 56.544 45.5806 56.4018C45.7227 56.2597 45.8025 56.067 45.8025 55.866C45.8025 55.665 45.7227 55.4723 45.5806 55.3301C45.4385 55.188 45.2457 55.1082 45.0447 55.1082H42.741V53.7896H47.0757C47.2767 53.7896 47.4694 53.7097 47.6115 53.5676C47.7536 53.4255 47.8335 53.2328 47.8335 53.0318C47.8335 52.8308 47.7536 52.638 47.6115 52.4959C47.4694 52.3538 47.2767 52.274 47.0757 52.274H42.741V50.4855H55.5177Z" fill="#3B5998"/>
</g>
<defs>
<clipPath id="clip0_5957_1761">
<rect width="97" height="97" fill="white"/>
</clipPath>
</defs>
</svg>
