<svg width="79" height="94" viewBox="0 0 79 94" fill="none" xmlns="http://www.w3.org/2000/svg">
<path fill-rule="evenodd" clip-rule="evenodd" d="M23.0473 64.4778L0 93.4406C8.19185 94.0726 20.9429 86.2612 20.1979 76.7083L29.0711 65.5571L23.0473 64.4778ZM16.909 92.3295H29.6441C30.5229 92.3295 31.236 91.6163 31.236 90.7376C31.236 89.8589 30.5229 89.1457 29.6441 89.1457H16.909C16.0303 89.1457 15.3172 89.8589 15.3172 90.7376C15.3172 91.6163 16.0303 92.3295 16.909 92.3295ZM36.0117 92.3295H48.7468C49.6255 92.3295 50.3387 91.6163 50.3387 90.7376C50.3387 89.8589 49.6255 89.1457 48.7468 89.1457H36.0117C35.133 89.1457 34.4198 89.8589 34.4198 90.7376C34.4198 91.6163 35.133 92.3295 36.0117 92.3295ZM55.1143 92.3295H67.8494C68.7282 92.3295 69.4413 91.6163 69.4413 90.7376C69.4413 89.8589 68.7282 89.1457 67.8494 89.1457H55.1143C54.2356 89.1457 53.5225 89.8589 53.5225 90.7376C53.5225 91.6163 54.2356 92.3295 55.1143 92.3295ZM22.0413 56.4022L20.2727 58.626C19.9177 59.0718 19.8286 59.6735 20.0387 60.2036C20.1708 60.5411 20.4128 60.8149 20.7152 60.9916L35.2524 63.3794C35.8127 63.4606 36.3747 63.2377 36.7265 62.7952L39.2512 59.6226L22.0413 56.4022ZM44.2386 53.3569L41.4958 56.8033L24.2859 53.5829L27.0287 50.1365L44.2386 53.3569ZM49.226 47.0896L46.4815 50.5377L29.2716 47.3173L32.016 43.8693L49.226 47.0896ZM34.259 41.05L36.5004 38.2021C26.099 38.0397 17.705 29.5438 17.705 19.1027C17.705 8.55958 26.2646 0 36.8076 0C45.7684 0 53.2964 6.18288 55.3531 14.51L55.3452 14.5514L64.602 2.91955C65.8803 1.31333 67.7428 0.281773 69.782 0.0493578C71.8196 -0.181466 73.8668 0.405942 75.473 1.68264C77.0776 2.96092 78.1108 4.82342 78.3416 6.86103C78.574 8.90024 77.9866 10.9474 76.7083 12.552L51.4689 44.2704L34.259 41.05ZM52.6788 17.8706L39.17 34.8464C38.3995 34.9627 37.61 35.0215 36.8076 35.0215C28.022 35.0215 20.8888 27.8883 20.8888 19.1027C20.8888 10.317 28.022 3.18378 36.8076 3.18378C45.1794 3.18378 52.05 9.65959 52.6788 17.8706ZM41.5833 14.3636V9.55133C41.5833 8.6726 40.8701 7.95944 39.9914 7.95944H33.6239C32.7451 7.95944 32.032 8.6726 32.032 9.55133V14.3636H27.2563C26.3776 14.3636 25.6644 15.0768 25.6644 15.9555V22.2864C25.6644 23.1651 26.3776 23.8783 27.2563 23.8783H32.032V28.654C32.032 29.5327 32.7451 30.2459 33.6239 30.2459H39.9914C40.8701 30.2459 41.5833 29.5327 41.5833 28.654V23.8783H46.359C47.2377 23.8783 47.9509 23.1651 47.9509 22.2864V15.9555C47.9509 15.0768 47.2377 14.3636 46.359 14.3636H41.5833ZM38.3995 15.9555C38.3995 16.8342 39.1127 17.5474 39.9914 17.5474H44.7671V20.6945H39.9914C39.1127 20.6945 38.3995 21.4077 38.3995 22.2864V27.0621H35.2158V22.2864C35.2158 21.4077 34.5026 20.6945 33.6239 20.6945H28.8482V17.5474H33.6239C34.5026 17.5474 35.2158 16.8342 35.2158 15.9555V11.1432H38.3995V15.9555ZM68.3382 8.08997L64.3091 13.1538C63.7631 13.8415 63.8761 14.8444 64.5638 15.3904C65.2515 15.938 66.2528 15.825 66.8004 15.1373L70.8295 10.0735C71.3771 9.38577 71.2641 8.38289 70.5764 7.83687C69.8887 7.28926 68.8858 7.40387 68.3382 8.08997Z" fill="#3B5998"/>
</svg>
