<svg width="12" height="12" viewBox="0 0 12 12" fill="none" xmlns="http://www.w3.org/2000/svg">
<g clip-path="url(#clip0_5957_2015)">
<path d="M5.91372 5.78043C6.70784 5.78043 7.39549 5.49561 7.95734 4.93367C8.51919 4.37181 8.80401 3.68434 8.80401 2.89013C8.80401 2.09618 8.51919 1.40862 7.95725 0.846585C7.3953 0.284819 6.70775 0 5.91372 0C5.11951 0 4.43205 0.284819 3.8702 0.846676C3.30835 1.40853 3.02344 2.09609 3.02344 2.89013C3.02344 3.68434 3.30835 4.3719 3.87029 4.93376C4.43223 5.49552 5.11979 5.78043 5.91372 5.78043Z" fill="#F1F0F0"/>
<path d="M10.9717 9.2278C10.9554 8.99398 10.9227 8.73891 10.8744 8.46956C10.8257 8.1982 10.763 7.94167 10.6879 7.70721C10.6104 7.46487 10.5049 7.22555 10.3746 6.99621C10.2392 6.75818 10.0803 6.5509 9.90196 6.38034C9.71547 6.2019 9.48714 6.05844 9.22311 5.9538C8.95999 5.8497 8.6684 5.79697 8.35648 5.79697C8.23398 5.79697 8.11552 5.84723 7.88673 5.99618C7.74592 6.08801 7.58122 6.19421 7.39739 6.31167C7.24019 6.41183 7.02724 6.50567 6.76421 6.59063C6.50759 6.67367 6.24704 6.71579 5.98987 6.71579C5.7327 6.71579 5.47224 6.67367 5.21534 6.59063C4.95259 6.50577 4.73964 6.41192 4.58263 6.31177C4.40053 6.1954 4.23574 6.0892 4.09283 5.99609C3.86432 5.84714 3.74576 5.79688 3.62326 5.79688C3.31125 5.79688 3.01975 5.8497 2.75672 5.95389C2.49287 6.05835 2.26445 6.20181 2.07778 6.38043C1.89953 6.55108 1.7405 6.75827 1.60537 6.99621C1.47509 7.22555 1.36962 7.46478 1.29199 7.7073C1.21701 7.94176 1.15429 8.1982 1.10559 8.46956C1.05734 8.73854 1.02457 8.9937 1.00836 9.22808C0.992432 9.45769 0.984375 9.696 0.984375 9.93669C0.984375 10.5631 1.1835 11.0702 1.57616 11.4442C1.96398 11.8132 2.47712 12.0005 3.10114 12.0005H8.87915C9.50316 12.0005 10.0161 11.8133 10.404 11.4442C10.7968 11.0705 10.9959 10.5633 10.9959 9.9366C10.9958 9.69481 10.9877 9.45632 10.9717 9.2278Z" fill="#F1F0F0"/>
</g>
<defs>
<clipPath id="clip0_5957_2015">
<rect width="11.9999" height="12" fill="white"/>
</clipPath>
</defs>
</svg>
