<svg width="32" height="32" viewBox="0 0 32 32" fill="none" xmlns="http://www.w3.org/2000/svg">
<circle cx="16" cy="16" r="16" fill="#3B5998"/>
<g clip-path="url(#clip0_5957_1656)">
<path d="M9.83385 10.3131H11.3656V9.98322C11.3656 9.71371 11.4825 9.46835 11.6717 9.28999L11.6726 9.28877C11.8625 9.11041 12.1224 9 12.4078 9C12.6932 9 12.9542 9.11068 13.1433 9.28917C13.3323 9.46686 13.4498 9.71249 13.4498 9.98322V10.3131H18.5499V9.98322C18.5499 9.71249 18.6672 9.46686 18.856 9.2889L18.876 9.27154C19.0635 9.10349 19.316 9.00014 19.5919 9.00014C19.8678 9.00014 20.1379 9.11054 20.3271 9.2889L20.3284 9.29012C20.5175 9.46889 20.6345 9.71426 20.6345 9.98336V10.3132H22.166C22.67 10.3132 23.1282 10.5077 23.4603 10.8212H23.4615C23.7936 11.1345 24.0001 11.5674 24.0001 12.0434V21.2697C24.0001 21.745 23.7936 22.1775 23.4615 22.4912L23.4603 22.492C23.1282 22.8058 22.6702 23.0003 22.166 23.0003H9.83385C9.3301 23.0003 8.87164 22.8058 8.53954 22.492L8.53839 22.4912C8.20616 22.1774 8 21.7448 8 21.2696V12.0432C8 11.5673 8.20616 11.1344 8.53839 10.821L8.5568 10.8053C8.88774 10.5012 9.33887 10.3132 9.83399 10.3132L9.83385 10.3131ZM19.104 18.9528H20.2919C20.4492 18.9528 20.5922 19.0135 20.6966 19.1116L20.6975 19.1127C20.8014 19.2108 20.8658 19.3457 20.8658 19.4941V20.6149C20.8658 20.7641 20.8014 20.8994 20.6975 20.9975C20.5935 21.0955 20.4501 21.1563 20.2919 21.1563H19.104C18.9459 21.1563 18.8024 21.0955 18.6986 20.9975C18.5951 20.8994 18.5302 20.7641 18.5302 20.6149V19.4941C18.5302 19.3453 18.5951 19.2095 18.6986 19.1116C18.8025 19.0135 18.946 18.9528 19.104 18.9528ZM20.241 19.5421H19.155V20.5667H20.241V19.5421ZM15.4058 18.9528H16.5937C16.751 18.9528 16.8941 19.0135 16.998 19.1116L16.9993 19.1127C17.1032 19.2108 17.1676 19.3457 17.1676 19.4941V20.6149C17.1676 20.7641 17.1032 20.8994 16.9993 20.9975C16.8954 21.0955 16.7519 21.1563 16.5937 21.1563H15.4058C15.2481 21.1563 15.1042 21.0955 15.0004 20.9975C14.8965 20.8994 14.8321 20.7641 14.8321 20.6149V19.4941C14.8321 19.3457 14.8965 19.2108 15.0004 19.1127L15.0016 19.1116C15.1055 19.0135 15.2485 18.9528 15.4058 18.9528ZM16.5429 19.5421H15.4569V20.5667H16.5429V19.5421ZM11.7077 18.9528H12.8956C13.0537 18.9528 13.1972 19.0135 13.3011 19.1116C13.4051 19.2097 13.4695 19.3454 13.4695 19.4941V20.6149C13.4695 20.7641 13.4051 20.8994 13.3011 20.9975C13.1972 21.0955 13.0537 21.1563 12.8956 21.1563H11.7077C11.5499 21.1563 11.406 21.0955 11.3022 20.9975C11.1983 20.8994 11.1339 20.7641 11.1339 20.6149V19.4941C11.1339 19.3457 11.1983 19.2108 11.3022 19.1127L11.3034 19.1116C11.4073 19.0135 11.5504 18.9528 11.7077 18.9528ZM12.8445 19.5421H11.7585V20.5667H12.8445V19.5421ZM19.104 15.2999H20.2919C20.4492 15.2999 20.5922 15.361 20.6966 15.4587L20.6975 15.4598C20.8014 15.5578 20.8658 15.6932 20.8658 15.8412V16.9623C20.8658 17.1111 20.8014 17.2469 20.6975 17.3446C20.5935 17.4426 20.4501 17.5038 20.2919 17.5038H19.104C18.9459 17.5038 18.8024 17.4426 18.6986 17.3446C18.5951 17.2469 18.5302 17.1111 18.5302 16.9623V15.8412C18.5302 15.6924 18.5951 15.5566 18.6986 15.459C18.8025 15.3609 18.946 15.2997 19.104 15.2997V15.2999ZM20.241 15.8896H19.155V16.9138H20.241V15.8896ZM15.4058 15.2999H16.5937C16.751 15.2999 16.8941 15.361 16.998 15.4587L16.9993 15.4598C17.1032 15.5578 17.1676 15.6932 17.1676 15.8412V16.9623C17.1676 17.1111 17.1032 17.2469 16.9993 17.3446C16.8954 17.4426 16.7519 17.5038 16.5937 17.5038H15.4058C15.2481 17.5038 15.1042 17.4426 15.0004 17.3446C14.8965 17.2469 14.8321 17.1111 14.8321 16.9623V15.8412C14.8321 15.6932 14.8965 15.5578 15.0004 15.4598L15.0016 15.4587C15.1055 15.361 15.2485 15.2999 15.4058 15.2999ZM16.5429 15.8896H15.4569V16.9138H16.5429V15.8896ZM11.7077 15.2999H12.8956C13.0537 15.2999 13.1972 15.361 13.3011 15.4591C13.4051 15.5567 13.4695 15.6925 13.4695 15.8413V16.9625C13.4695 17.1113 13.4051 17.247 13.3011 17.3447C13.1972 17.4428 13.0537 17.5039 12.8956 17.5039H11.7077C11.5499 17.5039 11.406 17.4428 11.3022 17.3447C11.1983 17.247 11.1339 17.1113 11.1339 16.9625V15.8413C11.1339 15.6933 11.1983 15.558 11.3022 15.4599L11.3034 15.4588C11.4073 15.3612 11.5504 15.3 11.7077 15.3V15.2999ZM12.8445 15.8896H11.7585V16.9138H12.8445V15.8896ZM8.6248 13.3174H23.3749V12.0432C23.3749 11.7299 23.2388 11.4446 23.02 11.2377C22.8012 11.0309 22.4988 10.9024 22.1659 10.9024H20.6344V11.1181L20.6339 11.1308V11.1436L20.6335 11.1559L20.6326 11.1687L20.6318 11.181V11.1814L20.6309 11.1934V11.1938L20.63 11.2061L20.6285 11.2185V11.2189L20.6272 11.2308V11.2312L20.6256 11.2431V11.2435L20.624 11.2555V11.2559L20.62 11.2798V11.2802L20.618 11.2917V11.2921C20.5793 11.4935 20.4758 11.6743 20.3283 11.8131C20.2456 11.8911 20.1493 11.9562 20.0431 12.0046L20.0088 12.0196L19.9853 12.0289L19.9735 12.0335L19.9617 12.0377L19.9499 12.0419L19.9381 12.0461L19.9259 12.0499L19.9137 12.0537L19.9015 12.0572L19.8892 12.061L19.877 12.0645L19.8648 12.0677L19.8521 12.0708L19.8399 12.0739L19.8273 12.0766L19.8146 12.0793L19.802 12.082L19.7893 12.0843H19.7889L19.7762 12.0867L19.7636 12.0886L19.7505 12.0904L19.7374 12.0923L19.7248 12.0938H19.7243L19.7117 12.0953H19.7113L19.6982 12.0968L19.6851 12.098L19.672 12.0991L19.6585 12.0999L19.6454 12.1008L19.6319 12.1012L19.6184 12.1016L19.6053 12.102H19.5784L19.5649 12.1016L19.5515 12.1012L19.5384 12.1008L19.5249 12.0999L19.5119 12.0991H19.5114L19.4988 12.098H19.4983L19.4857 12.0968H19.4853L19.4722 12.0953L19.4595 12.0938H19.4591L19.4464 12.0923H19.446L19.4334 12.0904H19.4329L19.4207 12.0886H19.4203L19.4076 12.0867H19.4072L19.395 12.0843H19.3945L19.3823 12.082C19.179 12.0428 18.9965 11.9471 18.855 11.8133C18.7107 11.6773 18.608 11.5011 18.5678 11.3047V11.3043L18.5653 11.2928V11.292L18.5633 11.2804V11.28L18.5613 11.2681V11.2677L18.5593 11.2562V11.2557L18.5577 11.2438V11.2434L18.5561 11.2315V11.2311L18.555 11.2191V11.2187L18.5534 11.2068V11.2064L18.5525 11.194V11.1936L18.5514 11.1817V11.1813L18.5509 11.1689L18.5501 11.1566V11.1562L18.5496 11.1439V11.1311L18.5492 11.1184V10.9027H13.4491V11.1184V11.1311V11.1439L13.4482 11.1562V11.1566L13.4478 11.1689L13.4469 11.1813V11.1817L13.446 11.1936V11.194L13.4448 11.2064V11.2068L13.4436 11.2187V11.2191L13.442 11.2311V11.2315L13.4407 11.2434V11.2438L13.4387 11.2557V11.2562L13.4371 11.2677V11.2681L13.4351 11.28V11.2804L13.4327 11.292V11.2928L13.4302 11.3043V11.3047C13.3903 11.5011 13.2876 11.6773 13.1433 11.8133C12.9987 11.9498 12.8119 12.0464 12.6037 12.0843H12.6033L12.5911 12.0867H12.5902L12.578 12.0886H12.5776L12.5653 12.0904H12.5645L12.5523 12.0923H12.5518L12.5392 12.0938H12.5388L12.5261 12.0953H12.5257L12.513 12.0968H12.5126L12.4999 12.098H12.4995L12.4864 12.0991L12.4733 12.0999H12.4729L12.4603 12.1008H12.4598L12.4467 12.1012H12.4463L12.4332 12.1016L12.4197 12.102H12.3928L12.3793 12.1016L12.3662 12.1012L12.3527 12.1008L12.3396 12.0999H12.3392L12.3261 12.0991L12.313 12.098L12.2995 12.0968L12.2864 12.0953L12.2738 12.0938H12.2734L12.2603 12.0923L12.2476 12.0904L12.2345 12.0886L12.2215 12.0867L12.2088 12.0843L12.1962 12.082L12.1835 12.0793L12.1709 12.0766L12.1582 12.0739L12.146 12.0708L12.1333 12.0677L12.1207 12.0645L12.1085 12.061L12.0962 12.0572L12.084 12.0537L12.0718 12.0499L12.06 12.0461L12.0478 12.0419L12.036 12.0377L12.0242 12.0335L12.0124 12.0289L12.0011 12.0243H12.0006L11.9893 12.0196L11.9775 12.0146L11.9661 12.0096L11.9548 12.0046L11.9434 11.9992L11.9324 11.9937L11.921 11.9883L11.9101 11.9825L11.899 11.9767L11.8879 11.971L11.8769 11.9649L11.8662 11.959L11.8556 11.9525L11.845 11.9464L11.8343 11.9399L11.8237 11.9334L11.8135 11.9269L11.8033 11.92L11.7931 11.913L11.7828 11.9061L11.7726 11.8988L11.7629 11.8915L11.7531 11.8841L11.7433 11.8764L11.734 11.8691L11.7242 11.8614L11.7148 11.8536L11.7055 11.8455L11.6966 11.8374L11.6877 11.8292L11.6783 11.8211L11.6697 11.8127C11.5206 11.6723 11.4162 11.4897 11.3787 11.2856L11.3779 11.2799L11.3766 11.2741L11.373 11.2506L11.3721 11.2433L11.3713 11.2387L11.3704 11.2309L11.37 11.2267L11.3687 11.2186L11.3682 11.2148L11.3674 11.206V11.2029L11.3662 11.1936V11.1909L11.3654 11.1813V11.179L11.3645 11.1685V11.1666L11.3641 11.1559V11.1548L11.3636 11.1437V11.1429L11.3632 11.131V11.1182V10.9026H9.8314C9.50578 10.9026 9.20905 11.0256 8.9911 11.2244L8.97759 11.2378C8.75835 11.4447 8.62221 11.7299 8.62221 12.0434V13.3175L8.6248 13.3174ZM23.3749 13.9073H8.6248V21.2697C8.6248 21.5838 8.76094 21.8691 8.97975 22.0759C9.19899 22.2824 9.50132 22.4108 9.83385 22.4108H22.1657C22.4987 22.4108 22.801 22.2824 23.0203 22.0759C23.2391 21.8691 23.3748 21.5838 23.3748 21.2697V13.9073H23.3749ZM19.175 10.6077V11.1182V11.1232V11.1333L19.1754 11.1383L19.1759 11.1433V11.1437L19.1763 11.1487L19.1767 11.1533L19.1772 11.1584L19.1776 11.1634L19.1785 11.1684L19.1793 11.173V11.1734L19.1802 11.178V11.1784L19.1811 11.183L19.1819 11.1877V11.1881L19.1828 11.1927V11.1931L19.1841 11.1973V11.1977L19.1849 11.2023L19.1862 11.2069V11.2073C19.2042 11.28 19.2442 11.345 19.2982 11.3965C19.3524 11.4477 19.4213 11.485 19.4983 11.5019H19.4988L19.5037 11.503H19.5041L19.5085 11.5042H19.509L19.5139 11.505H19.5143L19.5188 11.5061H19.5192L19.5241 11.5069H19.5245L19.5294 11.5078L19.5343 11.5086H19.5347L19.5396 11.509H19.54L19.5449 11.5098L19.5502 11.5102L19.5556 11.511L19.5609 11.5114L19.5662 11.5118H19.5715L19.5768 11.5122H19.5822L19.5875 11.5126H19.5985L19.6039 11.5122H19.6092L19.6145 11.5118H19.6198L19.6251 11.5114L19.6305 11.511L19.6353 11.5102L19.6407 11.5098L19.646 11.509L19.6513 11.5086L19.6566 11.5078L19.6615 11.5069L19.6668 11.5061L19.6717 11.505L19.677 11.5042L19.6819 11.503L19.6872 11.5019L19.6921 11.5008L19.697 11.4996L19.7019 11.4985L19.7072 11.4975L19.7121 11.496L19.717 11.4945L19.7219 11.4932L19.7268 11.4918L19.7312 11.4903H19.7317L19.7361 11.4884L19.741 11.4869L19.7459 11.485L19.7504 11.4831L19.7552 11.4816L19.7597 11.4797L19.7646 11.4778L19.769 11.4755L19.7735 11.4736L19.778 11.4717L19.7824 11.4694L19.7869 11.4671L19.7913 11.4648L19.7958 11.4625L19.8002 11.4602L19.8043 11.4578L19.8087 11.4555L19.8132 11.4528L19.8172 11.4505L19.8212 11.4478L19.8257 11.4451L19.8297 11.4424L19.8337 11.4397L19.8378 11.437L19.8418 11.4338L19.8458 11.4311L19.8496 11.428L19.8536 11.4253L19.8576 11.4222L19.8613 11.4191L19.8649 11.4159L19.8685 11.4128L19.8723 11.4097L19.8763 11.4062L19.8799 11.403L19.8832 11.3997L19.8868 11.3965C19.9447 11.3419 19.9858 11.2716 20.0021 11.1931V11.1927L20.0029 11.1881V11.1877L20.0063 11.1688V11.168L20.0071 11.1638V11.1634L20.008 11.1538V11.1533L20.0084 11.1487V11.1483L20.0088 11.1437V11.1433L20.0093 11.1387V11.1383L20.0097 11.1337V11.1232V11.1182V9.98322C20.0097 9.87444 19.9633 9.77597 19.8882 9.70557L19.8869 9.70435C19.812 9.63355 19.7077 9.58934 19.5926 9.58934C19.4776 9.58934 19.3836 9.62894 19.3099 9.6935L19.2981 9.70544C19.2223 9.77651 19.1754 9.87498 19.1754 9.98308V10.6074L19.175 10.6077ZM11.9904 10.6077V11.1182V11.1232L11.9909 11.1278V11.1333L11.9913 11.1375V11.1432L11.9917 11.147V11.1481L11.9922 11.1516V11.1531L11.993 11.1612L11.9935 11.1631L11.9939 11.1658L11.9943 11.1677L11.9972 11.1874L11.9976 11.1889C12.0132 11.2689 12.0547 11.3404 12.1134 11.3961L12.1171 11.3993L12.1207 11.4026L12.1243 11.4058L12.128 11.4093L12.1316 11.4124L12.1352 11.4155L12.1392 11.4186L12.143 11.4218L12.147 11.4249L12.1506 11.4276L12.1546 11.4307L12.1586 11.4334L12.1627 11.4366L12.1667 11.4393L12.1707 11.442L12.1747 11.4447L12.1788 11.4474L12.1832 11.4501L12.1873 11.4524L12.1917 11.4551L12.1957 11.4574L12.2002 11.4597L12.2046 11.4621L12.2087 11.4644H12.2091L12.2131 11.4667L12.2176 11.469H12.218L12.222 11.4713L12.2269 11.4732L12.2314 11.4751L12.2358 11.4774L12.2403 11.4793L12.2452 11.4812L12.2496 11.4827L12.2545 11.4846L12.259 11.4865H12.2594L12.2639 11.488L12.2688 11.4899L12.2737 11.4913L12.2785 11.4928L12.2834 11.4941L12.2883 11.4956L12.2932 11.497L12.2981 11.4981L12.303 11.4992L12.3079 11.5004H12.3083L12.3132 11.5015L12.3181 11.5026L12.323 11.5038H12.3234L12.3283 11.5046L12.3336 11.5057L12.3385 11.5065L12.3438 11.5074L12.3487 11.5082H12.3491L12.354 11.5086H12.3544L12.3593 11.5094L12.3647 11.5098L12.37 11.5106L12.3749 11.511H12.3753L12.3802 11.5114H12.3859L12.3913 11.5118H12.3966L12.4019 11.5122H12.4125L12.4178 11.5118H12.4236L12.4285 11.5114H12.4342L12.4391 11.511H12.4396L12.4444 11.5106H12.4449L12.4498 11.5098H12.4502L12.4551 11.5094H12.4555L12.4604 11.5086L12.4653 11.5082H12.4657L12.4706 11.5074H12.471L12.4759 11.5065H12.4764L12.4808 11.5057H12.4812L12.4861 11.5046H12.4866L12.491 11.5038H12.4915L12.4963 11.5026H12.4968L12.5012 11.5015H12.5017C12.5787 11.4846 12.648 11.447 12.7022 11.3961C12.7564 11.345 12.7959 11.2796 12.8142 11.2069V11.2065L12.8151 11.2019L12.8162 11.1973V11.1969L12.8174 11.1927V11.1923L12.8182 11.1877V11.1873L12.8191 11.1826L12.82 11.178V11.1776L12.8208 11.173V11.1726L12.8217 11.168L12.8221 11.163L12.8225 11.158L12.8234 11.1529L12.8238 11.1483L12.8243 11.1433V11.1429L12.8247 11.1379V11.1329L12.8251 11.1278V11.1228V11.1178V9.98281C12.8251 9.87471 12.7778 9.77638 12.7025 9.70517V9.70395C12.6275 9.63315 12.5232 9.58893 12.4078 9.58893C12.2923 9.58893 12.1881 9.63315 12.1131 9.70395L12.1122 9.70517C12.0373 9.77556 11.9904 9.8739 11.9904 9.98281V10.6071V10.6077Z" fill="#F1F0F0"/>
</g>
<defs>
<clipPath id="clip0_5957_1656">
<rect width="16" height="14" fill="white" transform="translate(8 9)"/>
</clipPath>
</defs>
</svg>
