<svg width="12" height="12" viewBox="0 0 12 12" fill="none" xmlns="http://www.w3.org/2000/svg">
<path fill-rule="evenodd" clip-rule="evenodd" d="M4.7102 6.65123C3.62412 5.56507 3.37938 4.47892 3.32584 4.04675C3.31054 3.92819 3.34878 3.80581 3.43674 3.72167L4.31631 2.84204C4.44633 2.71201 4.46927 2.51313 4.36984 2.35633L2.97018 0.184023C2.8631 0.0119211 2.64512 -0.0492706 2.46156 0.042517L0.216752 1.09807C0.0714322 1.17074 -0.0165236 1.32754 0.00259741 1.48817C0.121148 2.60492 0.606822 5.35472 3.30671 8.05481C6.00661 10.7549 8.75621 11.2406 9.87288 11.3592C10.0373 11.3745 10.1903 11.2903 10.263 11.145L11.3184 8.90002C11.4102 8.72027 11.349 8.50228 11.1769 8.39137L9.00478 6.99543C8.84799 6.89599 8.64913 6.91894 8.51911 7.04897L7.64337 7.9286C7.55541 8.01274 7.43686 8.05481 7.31448 8.03951C6.87852 7.98597 5.79245 7.7412 4.70638 6.65505L4.7102 6.65123Z" fill="#F1F0F0"/>
</svg>
